<svg width="430" height="932" viewBox="0 0 430 932" fill="none" xmlns="http://www.w3.org/2000/svg">
<g clip-path="url(#clip0_232_17504)">
<rect width="430" height="932" fill="#FFBF1A"/>
<g opacity="0.4">
<mask id="mask0_232_17504" style="mask-type:luminance" maskUnits="userSpaceOnUse" x="253" y="217" width="312" height="387">
<path d="M564.586 217H253V603.667H564.586V217Z" fill="white"/>
</mask>
<g mask="url(#mask0_232_17504)">
<path d="M345.047 441.231C348.574 439.361 351.969 436.385 352.409 432.183C354.484 430.284 356.405 427.762 356.229 424.822C353.633 428.715 348.178 428.884 345.311 432.513C342.356 435.761 342.195 440.542 343.39 444.582C343.962 443.482 344.49 442.346 345.047 441.231Z" fill="#FF7330"/>
<path d="M322.701 444.061C323.72 444.816 324.314 442.602 324.629 441.928C325.128 440.366 324.988 438.643 324.343 437.14C323.434 434.859 321.373 433.371 319.496 431.912C319.13 431.692 318.257 429.888 318.213 430.761C317.7 430.24 317.282 429.624 316.982 428.957C316.314 430.709 316.784 432.652 317.605 434.273C319.071 437.308 322.202 439.523 322.495 443.064C322.334 443.409 322.422 443.805 322.701 444.061Z" fill="#FF7330"/>
<path d="M421.587 365.446C418.749 366.208 415.736 365.834 412.898 366.619C415.479 369.141 419.967 368.921 421.587 365.446Z" fill="#FF7330"/>
<path d="M423.766 367.609C424.771 368.269 425.922 368.628 426.97 369.193C427.469 369.545 426.816 368.335 426.699 368.086C425.929 366.641 424.375 365.754 422.747 365.747C420.459 365.483 423.07 367.03 423.766 367.609Z" fill="#FF7330"/>
<path d="M423.375 364.552C424.695 365.982 426.63 366.429 428.5 366.473C427.327 364.882 425.333 363.973 423.375 364.552Z" fill="#FF7330"/>
<path d="M418.295 368.958C418.009 370.52 418.676 372.016 419.71 373.16C420.025 371.613 419.615 369.926 418.295 368.958Z" fill="#FF7330"/>
<path d="M422.18 373.335C422.121 372.69 422.106 372.023 421.938 371.392C421.637 370.278 420.743 368.687 419.408 368.863C419.921 369.368 419.973 370.19 420.295 370.82C420.706 371.795 421.41 372.624 422.18 373.335Z" fill="#FF7330"/>
<path d="M420.934 367.814C421.857 369.002 422.708 370.263 423.837 371.283C424.116 371.554 424.402 371.832 424.658 372.126C424.812 369.977 423.331 367.521 420.934 367.814Z" fill="#FF7330"/>
<path d="M437.425 351.684C435.372 352.315 433.165 352.022 431.163 351.31C432.637 345.943 435.658 340.136 432.608 334.732C430.445 339.872 427.842 345.841 430.841 351.2C430.115 350.944 429.367 350.731 428.641 350.445C430.467 346.53 426.874 342.285 423.12 341.361C424.176 344.682 427.219 346.94 428.231 350.225C425.554 348.385 423.267 346.544 420.29 345.921C414.732 344.975 408.771 348.766 406.395 353.649C406.513 353.576 406.63 353.51 406.755 353.444C406.63 353.51 406.513 353.576 406.395 353.642C408.207 352.615 409.878 351.926 412.056 351.23C410.025 353.312 409.607 356.589 411.22 358.987C410.67 358.554 410.062 358.166 409.46 357.843C409.152 356.406 408.617 354.969 408.712 353.488C407.429 354.148 407.151 355.959 407.796 357.154C407.4 357.044 407.041 356.985 406.703 356.978C406.718 356.978 406.733 356.956 406.747 356.949C406.249 356.912 405.721 356.846 405.083 356.758C405.296 356.56 405.479 356.399 405.743 356.223C406.938 355.438 406.344 353.451 404.907 353.495C403.367 353.745 402.07 354.94 401.014 356.025C399.628 357.007 399.599 359.141 401.593 359.17C403.602 358.811 405.112 358.225 406.586 357.081C408.375 359.874 410.12 363.32 413.383 364.501C416.778 365.52 419.901 365.989 422.665 363.122C422.401 363.702 422.123 364.296 421.962 364.911C423.003 364.537 423.905 363.819 424.696 363.071C424.916 363.115 425.129 363.159 425.349 363.21C425.342 363.21 425.327 363.21 425.312 363.203C425.349 363.21 425.386 363.225 425.422 363.232C425.408 363.225 425.393 363.225 425.386 363.225C426.625 363.599 427.923 363.716 429.206 363.658C428.209 362.653 426.749 361.839 425.32 362.433C426.735 360.974 427.343 358.899 427.123 356.89C427.021 355.673 426.698 354.478 426.566 353.261C425.95 353.855 425.576 354.683 425.298 355.49C425.239 354.83 425.092 354.17 424.858 353.561C424.821 353.62 424.784 353.701 424.748 353.767C424.572 353.202 424.293 352.659 423.956 352.176C428.128 354.075 434.038 355.702 437.425 351.684Z" fill="#FF7330"/>
<path d="M298.445 372.096C300.814 370.329 302.163 367.25 301.122 364.368C299.281 366.56 298.922 369.391 298.445 372.096Z" fill="#FF7330"/>
<path d="M309.75 384.062C309.97 384.774 310.263 385.47 310.498 386.159C310.975 383.842 311.224 381.496 311.29 379.135C311.356 378.549 311.524 377.933 311.957 377.515C311.18 377.383 310.483 377.984 310.08 378.593C310.395 377.889 310.733 377.17 310.916 376.422C309.193 377.046 307.572 378.387 307.25 380.286C306.986 381.833 307.433 383.359 307.763 384.854C308.379 383.366 308.9 381.819 309.42 380.286C309.163 381.54 309.376 382.845 309.75 384.062Z" fill="#FF7330"/>
<path d="M294.456 371.297C294.456 371.297 294.449 371.297 294.449 371.304C294.434 371.304 294.419 371.311 294.412 371.319C294.427 371.311 294.441 371.304 294.456 371.297Z" fill="#FF7330"/>
<path d="M311.628 372.169C311.672 372.309 311.724 372.448 311.775 372.58C311.907 372.411 312.017 372.235 312.119 372.059C311.921 372.792 311.709 373.526 311.489 374.259C311.108 374.061 310.748 373.79 310.389 373.548C311.518 380.645 319.188 368.511 313.916 364.375C314.693 362.058 312.757 360.269 310.932 358.839C308.688 357.204 305.66 356.354 303.013 357.622C300.212 358.707 299.985 361.288 298.408 363.393C296.429 366.641 293.752 369.64 290.988 372.125H290.996C291.956 372.03 292.953 371.81 293.884 371.509C293.862 371.517 293.84 371.517 293.826 371.524C293.855 371.517 293.892 371.502 293.928 371.487C294.09 371.436 294.244 371.377 294.398 371.319C294.42 371.311 294.434 371.311 294.449 371.304C294.588 371.245 294.728 371.187 294.867 371.128C294.896 371.113 294.926 371.099 294.955 371.091C294.948 371.099 294.933 371.099 294.926 371.106C295.087 371.033 295.248 370.959 295.41 370.879C298.775 369.376 300.388 365.981 300.285 362.44C301.539 361.398 303.064 360.694 304.707 360.856C299.494 363.906 302.764 373.445 308.446 373.46C309.671 373.43 310.704 372.983 311.628 372.169Z" fill="#FF7330"/>
<path d="M301.082 354.727C298.494 355.188 297.357 358.525 298.912 360.578C299.425 358.569 300.356 356.677 301.082 354.727Z" fill="#FF7330"/>
<path d="M298.328 361.429C297.668 360.285 297.133 359.046 296.986 357.719C297.096 353.173 300.014 352.154 297.411 346.669C296.715 345.019 295.747 343.384 295.739 341.551C294.867 342.38 294.486 343.56 294.288 344.719C293.87 347.116 294.706 349.543 294.258 351.934C293.657 354.163 293.364 356.655 294.757 358.657C295.608 359.94 296.891 360.915 298.328 361.429Z" fill="#FF7330"/>
<path d="M312.134 307.801C311.02 310.58 309.561 313.227 307.955 315.757C304.802 320.933 300.894 325.684 298.255 331.154C296.883 334.182 295.93 337.46 296.033 340.81C298.247 337.13 301.07 333.874 303.695 330.487C307.434 325.376 311.746 320.156 312.442 313.623C312.677 311.68 312.596 309.708 312.134 307.801Z" fill="#FF7330"/>
<path d="M304.992 346.185C304.912 345.268 304.64 344.374 304.186 343.567C303.233 341.785 300.908 340.664 298.973 341.455C299.779 341.998 300.49 342.665 301.187 343.332C302.345 344.425 303.68 345.297 304.992 346.185Z" fill="#FF7330"/>
<path d="M306.67 343.494C306.281 342.805 305.695 342.226 305.042 341.786C304.962 343.025 305.416 344.33 306.377 345.151C307.997 346.845 307.029 344.367 306.67 343.494Z" fill="#FF7330"/>
<path d="M310.521 355.181C308.864 352.937 306.356 351.002 303.446 351.06C302.58 351.068 301.693 351.214 300.887 351.552C302.558 352.6 304.325 353.531 306.225 354.096C307.647 354.484 309.077 354.902 310.521 355.181Z" fill="#FF7330"/>
<path d="M308.893 289.72C310.388 292.843 311.298 296.253 311.437 299.721C311.43 302.126 310.777 305.213 312.258 307.134C312.478 303.842 314.663 300.945 314.48 297.565C314.663 294.053 313.746 290.644 312.603 287.366C311.62 283.429 312.749 279.418 312.991 275.459C316.43 263.493 325.214 251.549 320.301 238.74C319.641 246.27 317.347 253.617 314.252 260.487C311.598 265.612 310 271.639 311.459 277.365C309.142 280.965 307.214 285.467 308.893 289.72Z" fill="#FF7330"/>
<path d="M381.972 314.407C383.753 313.703 381.73 314.011 380.967 313.586C379.501 313.065 378.166 312.208 376.876 311.35C373.576 308.952 369.976 307.031 366.516 304.883C366.948 307.244 368.275 309.385 369.91 311.115C372.865 314.275 377.814 316.064 381.972 314.407Z" fill="#FF7330"/>
<path d="M345.537 256.168C345.955 260.854 347.356 265.539 350.003 269.454C339.503 269.945 335.456 277.82 334.019 287.183C333.403 290.153 332.977 293.181 331.958 296.055C331.049 298.717 330.03 301.386 329.949 304.23C331.79 301.803 334.011 299.677 335.61 297.06C340.112 290.013 336.299 279.25 345.317 274.99C352.972 271.522 361.147 276.94 366.045 282.681C369.528 286.589 371.698 291.685 376.017 294.809C378.481 296.649 381.619 297.478 384.669 297.148C383.562 296.671 382.469 296.121 381.457 295.447C376.486 291.861 374.301 285.753 370.335 281.23C374.822 278.04 379.844 275.554 383.796 271.654C391.04 265.07 395.865 255.406 395.124 245.478C396.584 242.809 397.163 239.656 396.694 236.65C397.067 237.391 397.5 238.117 397.918 238.821C398.534 235.484 398.988 231.87 397.317 228.754C396.686 227.5 395.828 226.327 394.728 225.447C394.692 227.588 394.692 229.743 395.029 231.87C394.303 230.491 393.394 229.193 392.39 228.013C392.463 232.706 392.36 237.427 393.233 242.054C393.68 245.156 391.202 249.115 390.395 252.238C389.515 254.673 388.709 257.144 387.528 259.453C383.312 267.863 373.26 271.786 370.1 280.929C365.576 275.298 359.329 270.327 351.931 269.535C350.787 260.186 348.426 250.831 349.944 241.387C350.369 238.029 351.271 234.553 353.559 231.958C350.912 232.808 348.932 235.111 347.693 237.515C348.074 236.005 348.258 234.451 348.463 232.911C346.205 234.209 344.804 237.471 346.754 239.612C344.789 244.877 345.112 250.662 345.537 256.168Z" fill="#FF7330"/>
<path d="M326.184 232.669C326.22 235.257 327.511 237.537 329.146 239.458C329.813 236.826 328.596 233.959 326.184 232.669Z" fill="#FF7330"/>
<path d="M332.26 236.702C332.524 237.721 332.913 238.733 333.536 239.583C333.947 237.303 334.878 235.052 334.453 232.691C334.262 231.598 333.133 228.387 331.659 229.193C331.307 229.465 331.579 229.831 331.681 230.139C331.718 230.264 331.689 230.396 331.806 230.235C331.938 232.39 331.637 234.597 332.26 236.702Z" fill="#FF7330"/>
<mask id="mask1_232_17504" style="mask-type:luminance" maskUnits="userSpaceOnUse" x="320" y="217" width="27" height="27">
<path d="M320.574 217.638H346.853V243.279H320.574V217.638Z" fill="white"/>
</mask>
<g mask="url(#mask1_232_17504)">
<path d="M326.043 238.081C325.068 237.626 324.76 236.475 324.291 235.588C323.924 234.759 323.301 234.077 323.044 233.205C322.091 229.495 326.292 227.134 328.829 225.286C333.976 221.407 339.16 222.771 342.694 227.94C340.509 230.484 339.402 233.901 339.798 237.245C339.344 237.267 338.64 237.567 338.295 237.215C338.134 236.13 338.376 235.016 338.273 233.916C338.244 232.699 338.134 231.474 338.031 230.257C333.573 234.942 337.034 241.835 339.798 237.318C340.003 239.334 340.641 241.343 341.697 243.066C342.929 238.96 343.816 234.759 344.271 230.499C345.173 232.801 344.718 228.886 344.667 228.065C344.828 227.236 345.041 226.422 345.312 225.623C344.982 225.836 344.652 226.093 344.337 226.342C341.983 216.759 331.425 215.688 324.951 222.067C322.384 224.553 319.818 228.446 321.314 232.105C321.079 234.656 322.883 239.18 326.043 238.081Z" fill="#FF7330"/>
</g>
<path d="M396.021 248.308C397.223 246.791 397.81 244.928 397.942 243.022C396.123 244.041 395.126 246.351 396.021 248.308Z" fill="#FF7330"/>
<path d="M398.111 248.741C398.441 248.111 398.866 247.539 399.313 246.982C401.227 244.885 402.679 242.458 404.131 240.038C400.244 240.5 396.329 245.039 398.111 248.741Z" fill="#FF7330"/>
<path d="M400.074 226.598C400.25 228.82 400.052 231.071 400.433 233.278C400.793 235.213 401.504 237.076 402.355 238.835C403.183 235.917 403.953 232.72 402.618 229.817C402.083 228.556 401.24 227.353 400.074 226.598Z" fill="#FF7330"/>
<path d="M418.845 284.213C419.483 288.921 419.263 293.679 419.263 298.408C419.219 300.044 419.175 301.679 419.292 303.306C419.27 304.194 420.289 309.018 420.516 306.738C421.44 302.991 423.435 299.545 423.787 295.652C424.718 287.359 422.254 279.22 421.206 271.052C420.003 262.129 419.813 253.089 417.921 244.246C413.566 257.261 416.814 271.067 418.845 284.213Z" fill="#FF7330"/>
<path d="M415.274 239.92C413.449 243.117 413.625 247.164 415.084 250.464C415.942 248.733 416.697 246.937 417.313 245.104C418.369 242.017 418.559 238.747 419.256 235.587C417.599 236.628 416.184 238.175 415.274 239.92Z" fill="#FF7330"/>
<path d="M415.661 236.394C415.727 236.966 415.903 237.552 416.174 238.065C417.56 235.837 418.381 233.366 418.711 230.77C416.739 231.877 415.309 234.077 415.661 236.394Z" fill="#FF7330"/>
<path d="M407.222 227.104C405.734 231.027 405.719 235.353 407.325 239.239C409.429 235.492 409.855 230.711 407.222 227.104Z" fill="#FF7330"/>
<path d="M411.623 230.102C410.677 232.705 410.626 235.616 411.851 238.131C412.525 236.584 413.192 234.941 413.038 233.211C413.163 233.519 413.28 233.827 413.398 234.127C413.17 234.824 413.06 236.789 413.896 235.469C414.116 236.305 414.131 235.447 414.256 235.036C415.055 234.098 415.553 232.954 415.92 231.796C415.473 231.942 415.003 232.184 414.608 232.47C415.935 215.555 398.11 215.533 398.462 228.467C403.338 221.457 408.221 222.77 411.623 230.102Z" fill="#FF7330"/>
<path d="M401.719 225.036C401.741 225.022 401.77 225.007 401.792 224.993C401.792 224.993 401.792 224.993 401.784 224.993C401.762 225.007 401.741 225.022 401.719 225.036Z" fill="#FF7330"/>
<path d="M399.875 350.43C401.752 350.291 403.644 349.859 405.403 349.147C411.115 347.014 414.891 341.874 417.465 336.558C415.969 337.68 414.4 338.75 412.838 339.792C408.116 342.812 403.563 346.185 399.875 350.43Z" fill="#FF7330"/>
<path d="M414.086 343.559C417.151 343.435 419.629 341.492 421.763 339.461C418.793 339.145 415.523 340.78 414.086 343.559Z" fill="#FF7330"/>
<path d="M418.808 311.57C417.048 315.339 420.106 318.887 423.09 320.889C427.841 324.144 431.302 328.918 434.022 333.925C434.323 329.306 432.922 324.504 429.982 320.889C427.079 316.761 420.135 316.944 418.808 311.57Z" fill="#FF7330"/>
<path d="M420.912 308.263C421.337 309.004 421.917 309.708 422.686 310.104C428.889 312.508 431.881 301.034 432.973 296.774C435.29 289.72 439.778 283.415 445.893 279.162C449.896 276.324 454.464 274.477 458.826 272.284C462.346 270.62 465.997 269.022 469.898 268.545C478.697 267.629 474.789 279.147 473.278 283.95C471.856 288.532 470.543 293.174 469.619 297.866C472.582 293.614 475.69 289.368 477.479 284.456C479.54 278.458 482.546 269.652 476.431 265.092C470.565 261.77 463.387 265.891 457.844 268.252C450.812 271.705 443.326 274.689 437.783 280.452C433.127 285.101 429.733 291.04 428.032 297.397C426.946 300.103 426.25 308.3 423.192 308.835C422.393 308.886 421.623 308.578 420.912 308.263Z" fill="#FF7330"/>
<path d="M358.326 477.275C360.599 474.43 362.696 471.432 364.977 468.587C366.736 466.438 368.225 463.946 370.556 462.369C371.209 462.09 372.081 461.812 371.935 460.925C371.473 459.231 369.097 460.213 367.946 460.609C362.616 463.036 359.58 468.367 356.061 472.781C352.27 477.767 346.888 481.733 340.854 483.515C336.11 484.776 331.095 484.226 326.358 483.236C322.208 482.276 319.275 479.057 316.834 475.772C314.524 472.905 312.449 469.863 310.272 466.893C309.208 465.449 308.116 463.997 307.023 462.574C307.097 464.796 307.478 467.01 308.145 469.129C309.553 473.587 312.031 477.657 314.92 481.308C318.865 486.844 325.669 488.867 332.195 489.051C342.35 490.297 351.874 484.776 358.326 477.275Z" fill="#FF7330"/>
<path d="M367.732 469.892C366.595 472.084 365.547 474.313 364.498 476.55C358.999 487.628 349.695 495.826 336.709 492.02C332.229 490.987 327.757 489.872 323.182 489.359C326.232 492.123 329.678 494.528 333.498 496.112C350.435 502.916 363.904 490.459 370.181 475.56C370.95 473.602 371.581 471.578 371.977 469.511C372.453 466.827 372.307 463.924 373.663 461.475C373.663 461.475 373.663 461.475 373.656 461.482C373.663 461.475 373.663 461.467 373.663 461.467C373.693 461.416 373.737 461.357 373.759 461.306C370.481 462.993 369.293 466.805 367.732 469.892Z" fill="#FF7330"/>
<path d="M371.59 435.05C371.575 434.999 371.568 434.947 371.553 434.896C371.56 434.925 371.568 434.947 371.575 434.977C371.223 433.701 370.9 432.411 370.446 431.179C369.661 433.855 368.943 436.626 369.199 439.435C369.617 443.79 372.543 447.331 373.562 451.518C374.435 454.488 374.391 457.728 373.078 460.566C375.153 459.173 376.612 456.988 377.184 454.561C379.171 446.913 373.129 441.957 371.59 435.05Z" fill="#FF7330"/>
<path d="M371.588 435.042C371.588 435.042 371.588 435.042 371.588 435.05C371.602 435.086 371.61 435.123 371.624 435.166C371.61 435.123 371.602 435.079 371.588 435.042Z" fill="#FF7330"/>
<path d="M382.925 392.839C379.142 395.603 375.461 398.69 372.91 402.679C369.896 407.833 366.78 413.479 367.11 419.63C367.249 421.441 367.748 423.48 369.31 424.58C368.591 422.593 369.361 420.452 370.05 418.56C373.892 409.783 377.698 400.897 382.925 392.839Z" fill="#FF7330"/>
<path d="M317.448 382.838C316.18 381.592 314.736 380.528 313.232 379.597C313.87 381.914 314.867 384.092 315.799 386.299C317.206 389.452 318.028 392.802 318.893 396.124C319.487 398.213 320.205 400.34 321.488 402.114C322.09 394.606 323.578 388.718 317.448 382.838Z" fill="#FF7330"/>
<path d="M311.069 445.755C313.922 435.593 316.612 425.342 320.564 415.532C324.502 406.543 332.069 385.808 327.567 376.811C327.193 382.706 324.736 388.234 323.82 394.056C322.317 401.77 319.553 409.094 316.422 416.273C313.467 423.744 311.165 431.457 308.826 439.141C306.523 446.452 303.085 454.817 307.103 462.135C307.726 456.533 309.757 451.217 311.069 445.755Z" fill="#FF7330"/>
<path d="M329.07 363.188C329.144 364.691 329.232 366.216 329.65 367.668C330.001 368.834 330.493 369.97 331.021 371.055C331.864 369.061 332.076 366.627 330.735 364.794C330.287 364.156 329.745 363.584 329.07 363.188Z" fill="#FF7330"/>
<path d="M320.156 323.646C322.063 322.319 323.881 320.772 325.303 318.909C327.202 316.38 328.178 313.22 328.42 310.089C326.543 311.416 324.819 313.066 323.478 314.935C321.637 317.502 320.757 320.588 320.156 323.646Z" fill="#FF7330"/>
<path d="M413.594 431.01C414.158 431.531 415.148 431.597 415.632 430.812C416.629 429.287 417.465 427.659 418.198 425.987C418.954 426.97 419.811 425.672 420.017 424.91C420.061 424.528 420.691 423.458 420.031 424.022C420.273 422.109 420.603 420.158 420.64 418.252C420.413 417.057 419.144 416.221 417.964 416.492C417.399 416.646 416.945 416.976 416.578 417.387C416.395 416.404 416.131 415.429 415.764 414.483C414.136 422.556 409.422 429.756 403.901 435.732C397.815 442.756 389.075 446.539 382.154 452.574C378.942 455.595 376.134 459.473 375.555 463.939C377.813 461.453 380.607 459.547 383.349 457.64C389.024 453.556 394.721 449.487 400.337 445.322C405.382 441.268 410.184 436.56 413.594 431.01Z" fill="#FF7330"/>
<path d="M412.223 441.927C408.916 443.804 405.294 445.058 401.775 446.458C395.608 448.841 389.457 452.603 386.26 458.586C389.046 457.193 392.001 456.137 394.904 455.008C401.789 452.522 408.483 448.402 412.223 441.927Z" fill="#FF7330"/>
<path d="M402.245 456.299C397.67 456.607 392.89 457.354 388.908 459.745C393.432 460.625 398.088 461.922 402.715 461.05C406.63 460.339 410.509 458.234 412.518 454.7C412.334 454.781 412.136 454.883 411.946 454.964C408.896 456.306 405.501 456.167 402.245 456.299Z" fill="#FF7330"/>
<path d="M438.846 543.939C438.831 543.983 438.824 544.027 438.809 544.071C438.787 544.152 438.758 544.24 438.736 544.321C438.772 544.196 438.809 544.064 438.846 543.939ZM452.527 572.777C450.144 568.663 447.813 564.425 444.315 561.133C443.736 560.561 443.142 560.011 442.526 559.476C442.79 559.329 443.032 559.117 443.23 558.853C444.081 557.9 443.685 556.609 443.567 555.48C443.406 554.168 443.252 552.855 443.142 551.543C443.347 552.012 443.545 552.481 443.736 552.95C443.978 553.544 444.924 553.61 445.166 552.972C445.378 552.415 446.126 548.91 445.283 550.443C445.166 548.089 444.499 541.696 441.742 541.197C440.561 541.006 439.476 541.82 439.176 542.942C438.53 541.49 437.848 540.039 437.13 538.624C436.602 542.136 436.492 545.706 436.851 549.233C436.25 547.063 435.539 544.922 434.718 542.825C426.821 525.396 418.36 508.195 409.172 491.405C405.88 486.016 403.006 480.187 399.707 474.695C399.993 474.247 400.235 473.749 400.572 473.36C400.77 473.778 400.953 474.211 401.136 474.621C401.672 473.177 403.123 468.323 401.283 467.59C399.054 466.725 398.541 469.922 397.676 471.307C397.522 471.021 397.382 470.721 397.25 470.435C397.206 470.508 397.177 470.589 397.14 470.662C394.266 466.424 390.981 462.523 386.854 459.356C388.753 465.801 392.008 471.689 395.791 477.202C404.018 490.261 411.196 503.957 418.044 517.778C424.717 530.258 428.962 544.24 437.958 555.319C438.061 555.685 438.164 556.045 438.274 556.411C437.863 556.169 437.452 555.942 437.035 555.722C439.887 561.338 442.893 566.881 446.456 572.08C451.112 579.031 454.302 586.876 459.463 593.49C460.563 594.927 461.707 596.335 462.844 597.728C461.795 593.453 460.71 589.164 458.965 585.109C457.037 580.893 454.793 576.817 452.527 572.777Z" fill="#FF7330"/>
<mask id="mask2_232_17504" style="mask-type:luminance" maskUnits="userSpaceOnUse" x="253" y="288" width="59" height="59">
<path d="M253.916 288.327H311.187V346.514H253.916V288.327Z" fill="white"/>
</mask>
<g mask="url(#mask2_232_17504)">
<path d="M283.349 339.366C281.795 337.415 280.497 335.26 279.229 333.111C274.045 321.849 263.457 313.432 260.62 301.092C260.129 299.105 260.605 296.957 259.784 295.058C270.056 292.887 280.915 294.816 290.828 297.881C297.083 300.139 303.425 302.089 309.899 303.6C299.407 291.201 278.202 289.243 262.886 289.727C258.53 289.779 252.085 291.839 255.135 297.316C255.209 300.088 255.722 302.837 256.595 305.462C260.759 317.069 270.416 325.508 275.665 336.572C282.734 348.172 286.598 341.976 291.056 345.151C289.897 341.646 285.278 342.181 283.349 339.366Z" fill="#FF7330"/>
</g>
<path d="M306.37 309.422C304.882 305.191 299.559 303.681 295.467 303.776C292.439 303.945 289.22 304.649 286.801 306.57C287.637 306.643 288.473 306.848 289.286 307.039C291.875 307.633 294.463 308.263 297.088 308.681C299.625 309.341 304.742 308.535 305.615 311.644C302.851 311.79 300.109 312.802 298.034 314.664C297.96 314.73 297.88 314.796 297.821 314.87C299.881 314.84 301.964 315.038 304.009 314.628C306.026 314.173 308.108 313.154 309.31 311.416C308.255 311.468 307.191 311.534 306.136 311.6C306.495 310.932 306.546 310.148 306.37 309.422Z" fill="#FF7330"/>
<path d="M299.39 326.461C299.426 325.398 298.657 324.32 297.513 324.379C294.983 324.445 293.385 327.546 294.367 329.768C294.925 331.168 296.464 332.085 297.953 331.689C296.604 330.611 296.501 328.866 297.168 327.356C297.549 326.138 298.275 325.435 299.39 326.461Z" fill="#FF7330"/>
<path d="M350.004 331.19C350.282 331.351 350.59 331.447 350.905 331.483C349.989 333.199 351.697 335.377 353.589 334.856C353.01 336.249 352.57 338.134 354.168 339.028C355.055 339.549 356.265 339.417 356.984 338.669C358.091 337.518 359.037 336.249 359.88 334.907C359.792 335.619 359.66 336.337 359.543 337.034C360.899 335.443 362.131 333.617 362.644 331.557C363.275 329.76 362.784 326.563 360.239 327.876C360.041 326.798 359.007 325.984 357.922 326.014C358.553 323.55 356.089 321.262 353.875 322.897C354.022 321.849 354.212 320.786 354.44 319.759C352.497 321.343 346.646 329.364 350.004 331.19Z" fill="#FF7330"/>
<path d="M366.378 331.263C365.696 332.979 367.39 334.834 369.157 334.321C370.066 334.108 370.939 333.72 371.738 333.25C372.874 335.553 375.375 334.482 376.856 333.155C376.98 333.47 377.171 333.756 377.406 333.998C380.316 336.66 385.119 330.603 386.879 328.514C386.835 328.675 386.769 328.829 386.717 328.983C391.095 325.537 391.263 320.39 384.958 325.134C386.578 322.523 383.565 319.576 381.204 321.717C380.61 322.355 380.031 323.007 379.451 323.66C379.297 321.849 376.848 321.028 375.602 322.355C375.859 321.094 376.401 319.627 375.749 318.417C375.023 317.112 373.146 316.907 372.104 317.948C370.983 319.004 369.986 320.177 369.025 321.38C369.23 319.789 369.421 318.183 369.465 316.592C367.317 318.96 358.863 331.579 366.378 331.263Z" fill="#FF7330"/>
<path d="M350.972 303.996C350.386 305.198 349.88 306.437 349.498 307.721C348.912 309.598 351.134 311.277 352.798 310.257C353.157 310.067 353.502 309.832 353.832 309.583C352.783 312.721 356.2 315.06 358.158 312.113C357.996 313.308 357.842 314.517 357.813 315.705C359.39 313.044 361.259 310.514 362.286 307.559C362.616 306.291 363.334 304.795 362.682 303.534C361.567 301.679 359.412 302.713 358.385 304.091C358.106 302.199 356.42 300.264 354.418 301.327C354.477 300.33 354.558 299.318 354.609 298.321C353.209 300.081 351.955 301.965 350.972 303.996Z" fill="#FF7330"/>
<path d="M341.087 308.696C342.26 307.017 344.812 303.358 342.583 301.708C340.603 300.718 338.982 303.424 337.699 304.583C338.037 301.994 333.865 309.722 333.784 310.602C332.457 312.941 335.573 315.229 337.127 312.897C337.78 312.054 338.462 311.233 339.07 310.36C338.645 312.245 340.596 309.128 341.087 308.696Z" fill="#FF7330"/>
<path d="M338.007 337.386C338.044 335.956 338.022 334.035 336.446 333.441C337.091 331.315 338.506 327.832 337.677 325.728C336.746 324.005 333.975 324.379 333.513 326.271C332.296 329.944 330.91 333.573 329.854 337.298C329.253 339.637 327.808 344.264 331.746 344.058C331.804 345.334 333.066 346.383 334.341 346.177C334.224 347.006 334.114 347.856 334.07 348.685C335.558 346.383 337.186 344.161 338.528 341.763C339.525 340.341 340.361 337.929 338.007 337.386Z" fill="#FF7330"/>
<path d="M328.271 324.013C326.233 324.394 320.133 331.249 319.949 333.376C320.052 335.641 322.794 335.869 323.879 334.109C325.346 332.796 326.27 330.927 327.795 329.732C327.787 329.732 327.787 329.732 327.787 329.732C327.905 329.68 327.553 329.666 327.487 329.673C328.205 328.617 328.858 327.51 329.503 326.41C330.222 325.472 329.466 323.961 328.271 324.013Z" fill="#FF7330"/>
<path d="M368.796 347.196C368.657 348.934 368.393 350.664 368.29 352.387C369.822 350.056 374.625 342.936 371.589 340.685C371.091 340.392 370.46 340.333 369.918 340.531C370.556 337.694 366.919 335.846 365.306 338.42C364.323 340.223 363.707 342.188 363.062 344.132C362.146 345.737 362.204 347.974 364.514 347.988C365.768 349.557 367.96 348.773 368.796 347.196Z" fill="#FF7330"/>
<path d="M354.732 345.393C354.725 345.401 354.718 345.401 354.71 345.408C354.725 345.401 354.732 345.393 354.74 345.386C354.74 345.386 354.74 345.386 354.732 345.393ZM354.806 345.327C354.256 345.723 353.647 346.009 353.009 346.229C352.855 344.352 352.899 342.461 352.731 340.583C351.99 341.353 351.301 342.211 350.722 343.12C347.979 347.153 348.749 354.581 354.652 349.397C354.527 350.958 356.03 348.084 356.353 347.571C356.536 347.263 356.675 346.933 356.8 346.596C356.8 346.596 356.793 346.596 356.785 346.596C357.159 345.459 355.678 344.543 354.806 345.327Z" fill="#FF7330"/>
<path d="M360.892 360.658C361.208 361.567 360.768 363.261 361.721 363.723C363.393 364.068 364.148 357.073 363.994 355.79C364.038 354.462 362.638 353.407 361.369 353.788C361.692 352.82 360.863 351.735 359.851 351.764C357.864 351.926 355.547 357.087 355.276 358.928C354.748 360.548 355.694 362.506 357.556 362.476C358.861 362.418 359.939 361.465 360.892 360.658Z" fill="#FF7330"/>
<path d="M335.2 355.819C335.222 357.865 337.18 352.6 337.356 351.904C337.554 351.295 337.231 350.598 336.703 350.283C336.432 350.122 336.11 350.056 335.802 350.1C335.479 345.906 330.163 352.556 330.009 354.155C328.865 356.464 330.009 359.353 332.832 358.129C333.741 357.491 334.548 356.721 335.2 355.819Z" fill="#FF7330"/>
<path d="M326.747 275.826C329.445 276.42 329.687 272.893 330.391 271.097C330.831 268.948 332.107 263.244 328.785 263.039C326.329 263.156 326.512 266.309 326.095 268.083C325.831 270.173 323.924 275.005 326.747 275.826Z" fill="#FF7330"/>
<path d="M364.234 293.958C364.234 293.965 364.234 293.973 364.234 293.98C364.227 294.009 364.227 294.031 364.227 294.06C364.227 294.031 364.234 293.994 364.234 293.958Z" fill="#FF7330"/>
<path d="M363.619 291.297C363.545 290.263 363.296 289.244 363.237 288.21C363.237 288.225 363.237 288.239 363.23 288.254C362.24 285.512 358.875 295.388 361.822 295.703C362.423 295.872 363.186 295.623 363.501 295.051C364.286 295.997 364.117 294.464 364.234 293.98C364.352 293.02 364.99 291.597 363.619 291.297Z" fill="#FF7330"/>
<path d="M388.57 415.562C388.116 412.138 388.724 408.164 387.067 405.077C386.092 403.948 384.193 404.102 383.394 405.348C382.624 407.166 382.514 409.249 382.001 411.162C381.612 409.498 381.136 407.841 380.527 406.257C379.369 410.876 378.174 415.547 378.02 420.328C378.144 422.073 377.704 424.192 378.811 425.673C380.021 427.095 382.499 426.575 383.064 424.793C384.179 422.08 385.036 419.272 385.645 416.398C386.613 418.568 388.006 420.775 390.176 421.875C389.018 419.983 388.754 417.725 388.57 415.562Z" fill="#FF7330"/>
<path d="M402.049 423.979C401.946 422.923 402.173 421.779 401.726 420.782C401.154 419.609 399.592 419.103 398.449 419.741C398.009 418.319 397.583 416.867 397.173 415.437C395.589 419.939 395.186 424.837 395.934 429.544C396.154 431.348 396.682 433.643 398.889 433.745C400.135 433.826 401.264 433.056 401.697 431.934C401.99 432.44 401.777 431.377 401.873 431.135C401.983 428.752 402.122 426.369 402.049 423.979Z" fill="#FF7330"/>
<path d="M406.936 419.132C407.735 421.779 408.549 424.418 409.444 427.036C410.485 422.769 410.844 418.296 410.302 413.926C410.133 413.068 409.466 412.35 408.623 412.115C408.124 408.537 408.395 404.504 406.65 401.278C405.316 399.694 402.537 400.376 402.053 402.378C401.723 401.623 401.43 400.846 401.158 400.076C400.697 401.674 400.469 403.346 400.447 405.018C400.66 407.342 400.073 412.775 403.431 412.753C403.791 415.099 403.468 419.476 406.936 419.132Z" fill="#FF7330"/>
<path d="M421.096 388.381C420.033 387.105 417.745 387.56 417.283 389.166C416.579 391.827 416.044 394.54 415.597 397.253C415.032 400.714 414.658 404.204 414.394 407.701C414.204 409.681 413.808 412.782 416.557 412.995C420.238 412.973 418.992 408.376 419.395 405.956C419.527 406.403 420.07 407.027 420.231 406.235C420.165 406.286 420.099 406.389 419.996 406.411C420.136 402.979 421.243 399.585 421.492 396.131C421.565 393.858 422.357 390.309 421.096 388.381Z" fill="#FF7330"/>
<path d="M412.552 392.707C413.476 391.585 413.249 389.877 413.579 388.52C414.348 387.56 413.85 386.027 412.471 386.518C412.31 385.925 412.134 385.331 411.929 384.759C410.675 386.731 410.008 389.07 409.854 391.394C409.751 392.802 411.518 393.689 412.552 392.707Z" fill="#FF7330"/>
<path d="M431.705 382.692C432.9 379.37 433.311 375.785 432.893 372.28C432.68 370.99 432.893 369.464 431.976 368.423C430.884 367.147 428.743 367.331 427.841 368.739C426.719 371.686 426.866 375.044 426.345 378.16C424.688 378.102 423.178 379.114 422.225 380.433C422.239 379.385 422.049 375.081 420.699 377.926C419.937 379.297 418.207 383.887 420.971 383.857C420.993 383.85 421.015 383.843 421.037 383.835C421.081 385.104 420.949 387.45 422.547 387.729C423.119 387.773 423.552 387.413 423.772 386.915C424.695 384.151 424.168 380.851 426.287 378.527C425.803 380.155 426.353 382.34 428.45 382.002C428.45 382.017 428.45 382.032 428.45 382.046H428.457C428.266 383.945 431.126 384.51 431.705 382.692Z" fill="#FF7330"/>
<path d="M382.044 443.159C383.437 443.995 385.226 443.123 385.651 441.612C386.407 440.241 387.455 439.046 388.152 437.638C388.328 437.932 388.694 438.958 388.716 438.159C389.09 437.206 389.068 435.563 387.836 435.321C386.802 435.571 385.959 436.458 384.933 436.832C384.361 435.175 382.139 434.493 380.812 435.739C380.204 436.274 379.962 437.11 379.925 437.88C379.551 439.479 378.678 440.894 377.872 442.309C377.337 441.7 376.809 441.077 376.347 440.41L376.354 440.417C375.753 440.138 376.45 444.31 376.75 445.022C377.909 447.962 380.79 444.252 382.044 443.159Z" fill="#FF7330"/>
<path d="M420.18 443.203C421.507 442.074 421.771 440.028 422.563 438.51C425.672 439.94 425.965 435.585 425.98 433.51C425.929 431.655 426.185 429.815 426.354 427.967C426.171 428.201 425.987 428.473 425.811 428.722C425.283 426.618 422.197 426.141 421.082 428.003C418.684 432.153 418.076 437.015 417.944 441.729C417.834 442.88 419.168 443.76 420.18 443.203Z" fill="#FF7330"/>
<path d="M440.585 443.988C441.575 440.63 441.237 437.081 440.79 433.657C441.362 434.573 440.731 431.794 440.46 431.391C439.294 430.101 438.869 432.572 438.576 433.356C438.51 432.388 438.348 431.442 438.121 430.504C437.703 428.231 434.272 427.996 433.605 430.225C432.336 434.456 432.035 438.885 431.493 443.24C429.755 443.614 430.334 446.217 430.034 447.566C430.107 449.362 429.308 452.134 431.486 452.918C434.352 453.717 434.866 449.897 435.467 447.932C438.194 449.809 439.969 446.18 440.585 443.988Z" fill="#FF7330"/>
<path d="M427.343 499.389C427.233 497.321 427.203 495.246 427.247 493.171C427.247 497.021 427.467 500.863 427.805 504.69C427.585 502.93 427.438 501.156 427.343 499.389ZM420.649 459.854C420.649 459.818 420.656 459.788 420.656 459.759C420.656 459.788 420.656 459.818 420.649 459.854ZM435.371 476.285C435.093 475.039 435.129 473.646 434.536 472.502C433.252 470.801 431.265 471.982 430.701 473.661C430.672 471.586 430.657 469.503 430.679 467.428C430.62 466.636 429.997 465.94 429.212 465.801C428.245 465.595 427.269 466.284 427.093 467.238C426.58 469.408 426.111 471.586 425.686 473.771C425.414 469.019 425.224 464.239 424.483 459.539C424.366 457.361 421.022 457.171 420.663 459.334C418.427 470.706 419.49 482.349 418.361 493.824C417.202 490.972 416.066 488.098 415.003 485.216C413.441 491.214 413.954 497.937 417.048 503.37C417.635 504.624 419.358 505.064 420.465 504.243C421.668 503.458 421.462 501.875 421.763 500.643C422.181 498.172 422.46 495.686 422.636 493.186C423.061 498.414 423.721 503.634 424.718 508.781C424.806 509.779 425.708 510.585 426.712 510.483C428.289 510.365 428.677 508.686 428.223 507.41C429.066 509.309 432.101 508.481 431.889 506.413C431.683 503.172 431.573 499.917 431.419 496.669C431.133 492.05 431.126 487.416 431.933 482.84C432.043 485.436 432.101 488.032 432.175 490.634C432.578 493.795 437.065 493.164 436.809 490.011C437.109 489.139 436.046 472.788 435.371 476.285Z" fill="#FF7330"/>
</g>
</g>
<g opacity="0.6">
<mask id="mask3_232_17504" style="mask-type:luminance" maskUnits="userSpaceOnUse" x="-165" y="108" width="497" height="948">
<path d="M331.238 108.999H-164.008V1055.56H331.238V108.999Z" fill="white"/>
</mask>
<g mask="url(#mask3_232_17504)">
<path d="M156.411 343.064C153.806 344.046 150.015 343.095 148.61 346.153C149.172 344.78 149.734 343.422 150.373 342.096C150.857 340.084 151.653 338.508 152.651 337.26C153.119 339.038 154.211 340.396 156.052 339.241C156.863 338.149 157.441 335.762 157.129 333.952C158.751 333.266 160.545 332.829 162.418 332.501C163.042 334.093 163.01 335.981 162.574 337.899C164.352 336.277 164.929 333.999 164.368 332.205C165.553 332.033 166.739 331.893 167.94 331.737C164.695 336.043 161.294 340.599 156.411 343.064ZM148.408 346.652C148.361 346.761 148.33 346.855 148.298 346.948C148.283 346.964 148.283 346.964 148.283 346.964C148.314 346.855 148.361 346.761 148.408 346.652ZM156.567 327.275C148.532 328.944 145.584 336.09 145.007 343.625C142.947 347.9 143.181 353.142 145.88 357.354C145.88 355.825 145.974 354.328 146.13 352.83C146.567 354.671 147.097 356.59 145.865 358.275C151.575 356.574 145.475 349.008 151.887 346.527C151.933 346.511 151.949 346.496 151.98 346.465C153.447 346.683 154.976 347.385 156.442 347.182C163.931 346.48 167.878 338.446 168.658 331.643C172.278 331.144 175.788 330.458 178.58 328.586C171.154 329.912 163.962 324.248 156.567 327.275Z" fill="#FF7330"/>
<path d="M48.5277 350.335C48.5433 350.397 48.5277 350.444 48.5277 350.506C39.9002 349.383 36.2495 349.118 32.9732 347.043C33.2853 347.152 33.5817 347.261 33.8781 347.355C31.7719 344.235 28.3397 341.707 28.09 337.963C30.9451 338.447 33.8001 338.899 36.4991 339.71C36.4835 340.49 36.5927 341.395 36.8423 342.238C36.8579 343.517 37.2792 344.484 38.3557 344.578C38.7457 344.796 39.1981 344.874 39.713 344.734C40.6958 344.531 41.3355 343.299 41.6319 341.91C42.0843 342.175 42.5368 342.472 42.9736 342.784C45.5166 344.718 47.0143 347.527 48.5277 350.335ZM46.2343 352.316C47.0455 352.067 47.888 351.786 48.7461 351.474C48.7617 351.552 48.7617 351.645 48.8085 351.739C47.888 351.364 48.5433 352.254 49.2921 353.33C48.356 352.769 47.3108 352.441 46.2343 352.316ZM26.8887 337.76C26.3895 338.805 26.3115 339.82 26.5299 340.802C25.5938 339.726 24.5486 338.493 23.3629 337.074C24.5174 337.339 25.703 337.557 26.8887 337.76ZM27.8248 333.142C23.6905 333.673 19.5406 334.156 15.3906 334.281C17.6684 335.545 20.149 336.34 22.692 336.933C25.0322 350.194 31.6471 355.202 42.2092 353.315C43.3012 353.861 47.1079 354.547 47.8568 356.482C49.1361 358.385 49.2453 360.944 50.821 362.644C53.6917 363.877 54.1597 361.802 53.7229 359.555C55.439 356.56 53.13 350.865 50.7742 346.435C48.1688 336.309 41.7411 331.957 27.8248 333.142Z" fill="#FF7330"/>
<path d="M38.0914 327.385C23.8007 328.945 41.2896 328.508 48.9655 335.154C46.7969 331.066 43.4114 326.136 38.0914 327.385Z" fill="#FF7330"/>
<path d="M65.3915 442.242C65.1263 445.112 66.8893 448.155 69.6507 450.9C69.1202 450.932 68.5898 450.932 68.0438 450.994C69.2451 451.587 70.4931 452.18 71.7568 452.757C77.9505 457.734 87.0773 461.166 91.8044 459.575C102.647 457.827 99.4335 446.36 89.8231 446.392C81.024 448.264 70.7896 452.617 65.3915 442.242Z" fill="#FF7330"/>
<path d="M128.13 450.776C127.631 451.072 127.069 451.244 126.523 451.415C127.054 451.181 127.584 450.979 128.13 450.776ZM116.663 450.323C113.091 457.843 122.92 461.026 128.442 457.874C135.026 454.083 141.516 443.724 143.794 436.563C142.624 438.108 141.173 439.402 139.722 440.666C133.185 446.267 121.625 442.211 116.663 450.323Z" fill="#FF7330"/>
<path d="M165.74 482.991C144.46 513.367 128.312 486.954 105.862 488.109C108.53 479.029 110.371 469.387 108.109 460.073C105.597 465.643 104.349 471.54 104.146 477.5C101.276 462.211 86.9536 465.331 75.7987 457.827C83.4901 472.445 95.1442 466.314 104.115 478.217C104.068 481.525 104.38 484.848 104.989 488.155C104.131 488.218 103.288 488.327 102.43 488.483C91.4467 491.681 82.398 499.966 70.9311 501.775C55.7823 506.003 46.2655 501.073 35.9375 489.981C45.2202 516.581 72.5224 513.695 92.7728 501.526C106.33 492.493 113.554 496.346 126.94 502.555C143.789 510.138 162.245 501.323 165.74 482.991Z" fill="#FF7330"/>
<path d="M70.293 501.884C70.5114 501.853 70.7142 501.806 70.9326 501.775C71.0574 501.744 71.1666 501.713 71.2914 501.682C70.9638 501.744 70.6362 501.822 70.293 501.884Z" fill="#FF7330"/>
<path d="M54.0491 512.057C51.9586 517.034 50.1332 522.182 49.1191 527.471C53.3627 523.54 55.7497 517.767 54.0491 512.057Z" fill="#FF7330"/>
<path d="M55.8418 525.817C58.0572 523.383 59.3365 520.107 59.8045 516.877C57.1679 519.124 55.9978 522.447 55.8418 525.817Z" fill="#FF7330"/>
<path d="M59.273 533.336C61.4415 529.607 62.7988 525.317 62.1592 520.98C59.8034 524.615 58.6489 529.046 59.273 533.336Z" fill="#FF7330"/>
<path d="M65.7067 522.12C62.5552 525.755 61.822 530.576 61.9 535.24C64.677 531.465 65.6287 526.722 65.7067 522.12Z" fill="#FF7330"/>
<path d="M64.3124 540.497C66.8398 536.16 68.3219 531.246 68.6495 526.222C64.9832 529.998 63.7351 535.349 64.3124 540.497Z" fill="#FF7330"/>
<path d="M70.0741 540.154C72.3987 535.88 73.6312 530.918 72.9135 526.051C70.2769 530.263 69.3096 535.256 70.0741 540.154Z" fill="#FF7330"/>
<path d="M75.8802 529.858C73.0719 534.679 72.2763 540.42 73.54 545.849C75.7086 540.826 76.8162 535.303 75.8802 529.858Z" fill="#FF7330"/>
<path d="M78.2348 532.775C76.8775 537.299 76.8931 542.151 78.2192 546.676C79.9509 542.229 80.1849 537.19 78.2348 532.775Z" fill="#FF7330"/>
<path d="M82.7729 550.108C84.4891 544.897 85.5187 539.281 83.8182 533.914C81.6652 539.016 81.0568 544.804 82.7729 550.108Z" fill="#FF7330"/>
<path d="M85.1556 536.113C84.5783 540.2 85.3116 544.35 86.8405 548.126C88.073 544.069 87.4334 539.67 85.1556 536.113Z" fill="#FF7330"/>
<path d="M89.4179 535.348C88.6222 539.436 89.2307 543.773 91.2588 547.408C91.9453 543.289 91.5084 538.999 89.4179 535.348Z" fill="#FF7330"/>
<path d="M95.8566 533.556C95.4354 538.376 96.075 543.618 99.1485 547.503C99.086 542.667 98.774 537.643 95.8566 533.556Z" fill="#FF7330"/>
<path d="M101.492 539.67C102.194 542.51 101.835 546.051 103.271 548.906C103.973 546.02 104.285 541.387 101.492 539.67Z" fill="#FF7330"/>
<path d="M108.181 547.299C108.743 543.726 107.885 540.06 105.716 537.174C105.482 540.715 106.387 544.257 108.181 547.299Z" fill="#FF7330"/>
<path d="M109.075 531.433C107.406 536.816 108.17 542.557 110.963 547.44C111.68 542.058 111.166 536.457 109.075 531.433Z" fill="#FF7330"/>
<path d="M117.783 543.587C117.783 543.54 117.768 543.509 117.768 543.477C117.814 543.602 117.846 543.743 117.892 543.867C117.861 543.774 117.814 543.68 117.783 543.587ZM115.989 535.942C116.114 536.738 116.254 537.533 116.395 538.329C115.739 536.706 114.881 535.162 113.774 533.758C113.618 538.922 114.991 544.086 118.048 548.267C118.095 546.707 118.002 545.131 117.783 543.587C122.12 556.801 121.325 539.249 115.989 535.942Z" fill="#FF7330"/>
<path d="M125.506 546.005C124.897 542.447 123.15 539.14 120.404 536.8C120.935 540.357 122.791 543.649 125.506 546.005Z" fill="#FF7330"/>
<path d="M124.82 536.785C127.129 540.358 130.125 543.556 133.963 545.491C132.106 541.559 129.079 538.033 124.82 536.785Z" fill="#FF7330"/>
<path d="M130.529 535.412C131.777 539 133.977 542.276 137.222 544.289C135.943 540.732 133.868 537.331 130.529 535.412Z" fill="#FF7330"/>
<path d="M133.32 534.959C134.709 537.908 136.877 540.451 139.249 542.635C138.718 539.234 136.487 536.286 133.32 534.959Z" fill="#FF7330"/>
<path d="M133.9 532.9C135.57 536.566 138.596 539.39 142.2 541.122C140.469 537.533 137.551 534.538 133.9 532.9Z" fill="#FF7330"/>
<path d="M146.939 537.345C145.301 533.913 142.493 531.058 139.014 529.498C140.621 532.977 143.476 535.723 146.939 537.345Z" fill="#FF7330"/>
<path d="M141.059 528.906C142.666 532.183 145.458 534.726 148.766 536.208C147.159 532.947 144.428 530.264 141.059 528.906Z" fill="#FF7330"/>
<path d="M141.914 525.365C144.129 529.141 147.374 532.557 151.587 533.977C149.184 530.28 146.189 526.847 141.914 525.365Z" fill="#FF7330"/>
<path d="M156.984 525.364C154.488 520.466 150.494 516.316 145.377 514.194C147.904 519.108 152.054 522.962 156.984 525.364Z" fill="#FF7330"/>
<path d="M161.715 521.338C159.983 518.405 157.721 515.831 155.022 513.834C155.396 513.928 155.77 514.068 156.16 514.131C153.93 511.494 150.809 509.7 147.408 509.185C147.861 509.731 148.375 510.199 148.906 510.652H148.89C151.901 515.472 156.473 519.185 161.715 521.338Z" fill="#FF7330"/>
<path d="M159.562 509.95C155.412 507.953 151.309 505.519 146.66 504.926C149.936 508.452 154.632 511.058 159.562 509.95Z" fill="#FF7330"/>
<path d="M168.175 459.34C167.645 466.657 169.985 474.629 167.676 481.603C168.191 481.244 168.674 480.792 169.111 480.308C179.205 460.806 171.124 441.43 187.099 423.488C173.963 429.807 165.648 444.893 168.175 459.34Z" fill="#FF7330"/>
<path d="M38.6087 488.016C31.4633 469.45 39.7475 446.251 16.3301 436.579C18.1866 439.184 20.1056 441.758 21.8529 444.442C21.7749 444.286 21.6813 444.145 21.5877 444.005C30.4024 457.5 24.864 477.22 38.6087 488.016Z" fill="#FF7330"/>
<path d="M110.057 476.079C119.511 464.815 136.002 469.418 140.463 451.617C132.351 462.491 112.147 460.697 110.057 476.079Z" fill="#FF7330"/>
<path d="M120.67 446C122.823 445.064 131.388 440.93 125.616 442.007C114.227 443.754 102.401 442.194 91.2617 445.111C100.888 448.06 111.075 450.712 120.67 446Z" fill="#FF7330"/>
<path d="M118.953 186.068C134.414 171.138 147.941 150.638 141.731 128.406C138.003 144.303 130.966 159.171 123.665 173.821C128.782 158.844 131.247 143.243 124.663 128.421C124.913 140.778 120.95 152.697 118.47 164.679C116.239 176.52 114.445 188.439 112.744 200.359C114.757 195.756 116.894 190.982 118.953 186.068Z" fill="#FF7330"/>
<path d="M142.055 169.484C148.561 160.217 158.718 154.507 169.17 150.622C159.81 155.084 153.07 164.476 147.766 173.384C159.326 164.866 170.575 153.992 186.113 155.162C202.994 154.928 218.907 161.528 233.37 169.703C221.825 157.253 205.958 149.031 189.109 147.892C197.065 147.986 205.116 148.828 213.041 148.516C199.593 145.365 185.677 139.327 171.682 142.135C161.12 144.569 150.777 150.248 144.489 159.234C141.088 163.212 135.721 180.873 142.055 169.484Z" fill="#FF7330"/>
<path d="M239.771 189.36C240.239 189.891 240.739 190.374 241.238 190.858C233 186.536 223.593 184.524 214.123 185.678C207.524 186.022 200.878 187.317 194.887 190.218C209.864 190.452 225.949 191.404 239.6 198.081C255.014 206.35 261.364 224.323 276.091 233.465C270.241 226.117 265.794 217.879 261.13 209.751C258.431 205.18 254.983 201.108 251.036 197.629C253.454 198.783 255.997 199.72 258.602 200.453C264.577 202.497 264.016 202.091 259.086 198.799C236.183 183.853 238.945 164.991 202.64 164.944C166.258 170.545 219.973 163.353 239.771 189.36Z" fill="#FF7330"/>
<path d="M261.049 209.611C261.064 209.658 261.096 209.705 261.127 209.751C261.142 209.783 261.174 209.814 261.205 209.861C261.142 209.783 261.096 209.689 261.049 209.611Z" fill="#FF7330"/>
<path d="M233.855 219.954C241.812 226.819 251.36 231.437 259.317 238.27C266.774 244.791 271.954 253.528 279.739 259.69C268.256 234.822 262.328 225.134 233.855 219.954Z" fill="#FF7330"/>
<path d="M238.723 243.652C248.317 251.827 259.301 258.224 268.474 266.883C275.152 273.466 280.534 281.22 287.367 287.648C277.195 262.296 266.477 249.222 238.723 243.652Z" fill="#FF7330"/>
<path d="M190.093 227.038C178.002 234.683 164.429 241.407 150.076 243.029C165.116 250.627 182.418 240.486 190.093 227.038Z" fill="#FF7330"/>
<path d="M196.05 238.332C186.658 241.468 177.64 245.618 168.373 249.066C179.138 252.124 189.372 246.663 196.05 238.332Z" fill="#FF7330"/>
<path d="M172.244 254.808C183.727 255.51 195.162 253.06 205.99 249.41C210.561 247.85 215.085 245.993 219.453 244.012C216.162 244.043 212.885 244.121 209.594 244.277C209.75 244.277 209.906 244.261 210.062 244.261C196.613 244.059 183.945 248.474 172.244 254.808Z" fill="#FF7330"/>
<path d="M205.99 255.4C199.125 255.837 192.479 258.208 186.426 261.36C201.606 261.531 217.441 261.204 231.357 268.131C233.932 269.285 236.537 270.362 239.142 271.469C235.897 268.178 232.387 265.057 228.736 262.218C222.246 257.288 214.149 254.604 205.99 255.4Z" fill="#FF7330"/>
<path d="M194.461 271.859C209.579 278.209 225.929 281.204 240.843 288.194C229.205 274.075 212.278 268.864 194.461 271.859Z" fill="#FF7330"/>
<path d="M205.711 280.067C205.82 280.082 205.929 280.114 206.023 280.129C204.15 279.739 202.232 279.333 200.359 278.99C217.146 290.613 236.835 297.525 253.123 310.13C242.498 293.577 225.633 281.658 205.711 280.067Z" fill="#FF7330"/>
<path d="M94.827 267.788C100.365 259.348 100.272 248.926 103.923 239.753C107.058 229.815 113.439 221.374 118.385 212.326C95.4198 229.565 94.0157 240.58 94.827 267.788Z" fill="#FF7330"/>
<path d="M103.74 254.496C115.394 244.262 121.916 230.189 130.574 217.677C116.424 224.901 107.547 239.441 103.74 254.496Z" fill="#FF7330"/>
<path d="M150.716 218.581C139.873 218.488 128.796 223.34 123.601 233.231C122.29 235.602 121.354 238.176 120.527 240.719C124.209 237.287 127.922 233.87 132.213 231.203C139.654 226.569 147.83 223.324 156.129 220.563C165.974 217.91 155.022 218.644 150.716 218.581Z" fill="#FF7330"/>
<mask id="mask4_232_17504" style="mask-type:luminance" maskUnits="userSpaceOnUse" x="59" y="110" width="33" height="67">
<path d="M59.6523 110.715H91.6037V176.896H59.6523V110.715Z" fill="white"/>
</mask>
<g mask="url(#mask4_232_17504)">
<path d="M60.6836 110.716C77.5485 128.735 84.0543 153.229 90.2167 176.475C92.1513 151.341 87.0653 121.013 60.6836 110.716Z" fill="#FF7330"/>
</g>
<path d="M80.0859 119.046C93.815 135.443 97.5437 157.253 105.625 176.568C105.407 155.178 102.817 128.219 80.0859 119.046Z" fill="#FF7330"/>
<path d="M105.117 136.393C112.029 148.234 112.231 162.494 112.965 175.849C119.517 164.132 120.001 143.616 105.117 136.393Z" fill="#FF7330"/>
<path d="M71.7908 170.047C71.5255 140.826 42.9129 123.852 16.4688 122.011C37.2964 134.71 63.9901 144.586 71.7908 170.047Z" fill="#FF7330"/>
<path d="M38.1682 150.155V150.139C38.1525 150.124 38.1368 150.108 38.1211 150.092C38.1368 150.108 38.1525 150.124 38.1682 150.155Z" fill="#FF7330"/>
<path d="M24.9375 134.958C29.4307 139.935 33.4402 145.38 38.1674 150.138C42.2705 154.288 46.9508 157.876 51.2724 161.761C46.5608 149.779 37.8085 138.484 24.9375 134.958Z" fill="#FF7330"/>
<path d="M-5.35977 152.837C7.43325 154.226 19.6334 158.937 31.6152 163.353C37.9649 166.223 44.5174 169.109 49.7906 173.743C53.7377 177.519 50.2743 172.885 48.8077 170.888C35.6871 156.613 16.1543 145.817 -3.67484 147.595C-19.5725 150.669 -27.0611 151.418 -5.35977 152.837Z" fill="#FF7330"/>
<path d="M-15.2485 178.907C-6.09056 179.172 3.19218 177.971 12.2409 179.828C16.5 180.717 25.5956 185.132 17.2645 179.812C5.67278 172.355 -9.02359 171.465 -22.4563 171.075C-33.5175 171.06 -44.5944 173.665 -54.0176 179.594C-41.1778 177.565 -28.1819 178.657 -15.2485 178.907Z" fill="#FF7330"/>
<path d="M69.5078 220.048C73.9386 229.299 78.2445 238.66 83.0809 247.709C84.6098 236.32 78.8374 226.257 69.5078 220.048Z" fill="#FF7330"/>
<path d="M56.7656 216.99C63.1933 228.051 66.9064 240.392 71.8364 252.139C75.0971 238.551 68.3729 224.369 56.7656 216.99Z" fill="#FF7330"/>
<path d="M35.0312 211.405C43.8303 224.557 51.6934 238.333 59.806 251.906C59.7904 251.891 59.7904 251.875 59.7748 251.859C62.5986 238.427 48.3079 219.549 35.0312 211.405Z" fill="#FF7330"/>
<path d="M47.4802 246.68C48.7751 236.649 41.6297 228.021 33.1738 223.575C37.823 231.36 42.8934 238.864 47.4802 246.68Z" fill="#FF7330"/>
<path d="M43.0479 249.363C41.5346 239.441 34.4204 232.061 25.7617 227.63C30.4109 235.681 36.355 242.935 43.0479 249.363Z" fill="#FF7330"/>
<path d="M20.3504 240.002C20.3192 239.955 20.288 239.908 20.2412 239.877C24.4223 244.807 29.7268 248.629 34.5475 252.904C31.6925 241.734 22.0665 234.37 11.8945 230.064C14.656 233.418 17.3394 236.851 20.3504 240.002Z" fill="#FF7330"/>
<path d="M31.4601 256.305C23.2851 246.492 11.2097 241.718 -1.13086 239.877C8.3859 247.724 19.5408 253.232 31.4601 256.305Z" fill="#FF7330"/>
<path d="M-22.3027 259.223C-18.8861 259.644 -15.4382 259.987 -11.9903 259.987C-3.78406 260.003 12.9717 253.825 3.76694 253.669C4.11017 253.637 4.37539 253.591 4.59381 253.528C0.319065 250.97 -4.75134 249.41 -9.71253 250.658C-15.095 251.703 -4.2365 253.575 1.64517 253.731C-0.00855759 253.809 -2.09913 254.012 -4.76694 254.355C-10.7734 255.213 -16.6083 257.163 -22.3027 259.223Z" fill="#FF7330"/>
<path d="M-32.7751 265.074C-45.4589 264.107 -35.833 266.54 -30.0449 268.506C-18.422 272.172 -6.81464 267.742 4.29344 264.465C13.9818 262.843 -3.39797 261.127 -7.29828 262.141C-15.7854 263.155 -24.1476 265.526 -32.7751 265.074Z" fill="#FF7330"/>
<path d="M5.40588 556.754C3.34652 547.346 3.26851 537.549 7.35603 528.656C11.506 518.094 15.1411 507.235 20.8043 497.391C13.5497 502.321 7.54325 509.482 3.73655 517.564C3.70535 517.345 3.70534 517.111 3.65854 516.893C2.81607 518.515 2.00481 520.122 1.17794 521.745C1.50557 520.185 1.72399 518.593 1.78639 516.955C-5.12496 525.489 -11.225 534.569 -15.3594 544.788C-11.9115 542.26 -8.65084 539.265 -5.90502 535.879C-7.57436 539.327 -9.22809 542.775 -10.8194 546.254C-6.77869 543.571 -3.29961 540.107 -0.725409 536.129C-0.803414 543.29 1.05313 550.404 5.40588 556.754Z" fill="#FF7330"/>
<path d="M10.4143 543.852C15.7499 535.427 19.7594 526.036 20.5083 516.004C13.7217 523.695 10.2426 533.618 10.4143 543.852Z" fill="#FF7330"/>
<path d="M27.9827 510.823C26.1885 521.292 24.0668 531.745 23.0215 542.322C30.0732 533.305 33.2091 521.479 27.9827 510.823Z" fill="#FF7330"/>
<path d="M36.2344 539.561C41.8664 531.058 42.6777 520.059 36.6244 511.525C36.3748 520.871 36.3748 530.216 36.2344 539.561Z" fill="#FF7330"/>
<path d="M-2.67218 497.812C-2.73459 484.333 5.22205 472.585 6.93818 459.402C-2.79699 469.511 -9.77074 484.301 -2.67218 497.812Z" fill="#FF7330"/>
<path d="M207.022 442.039C207.755 432.397 208.161 418.028 196.928 414.471C197.068 414.658 197.224 414.846 197.365 415.033C197.38 415.048 197.38 415.048 197.396 415.08C197.38 415.064 197.38 415.064 197.38 415.048C202.638 423.052 202.419 433.52 207.022 442.039Z" fill="#FF7330"/>
<path d="M218.581 436.343C216.88 424.876 212.09 413.737 203.494 405.796C205.6 417.263 211.326 427.372 218.581 436.343Z" fill="#FF7330"/>
<path d="M203.402 393.581C214.152 404.143 224.651 415.407 231.017 429.245C231.017 412.442 220.376 396.841 203.402 393.581Z" fill="#FF7330"/>
<path d="M233.094 393.83C227.556 386.013 218.741 380.834 208.975 380.756C211.362 382.597 213.827 384.313 216.323 385.998C216.182 385.982 216.058 385.967 215.917 385.967C225.949 392.894 234.295 402.426 241.566 412.146C240.676 405.531 237.681 398.806 233.094 393.83Z" fill="#FF7330"/>
<path d="M233.265 382.457C229.302 377.48 225.168 372.706 219.271 370.585C215.682 367.402 212.125 364.173 208.459 361.083C216.712 382.504 232.563 394.018 255.45 395.25C247.197 392.208 240.005 387.668 233.265 382.457Z" fill="#FF7330"/>
<path d="M232.999 355.654C225.042 349.96 215.635 346.715 206.492 343.579C220.44 356.403 239.536 372.519 258.085 372.41C248.023 369.508 241.111 361.723 232.999 355.654Z" fill="#FF7330"/>
<path d="M217.146 340.536C228.754 347.088 240.236 353.953 251.672 360.817C244.043 348.898 232.046 339.21 217.146 340.536Z" fill="#FF7330"/>
<path d="M225.273 332.034C231.53 339.756 239.564 346.683 249.549 348.696C242.45 341.738 235.274 334.467 225.273 332.034Z" fill="#FF7330"/>
<path d="M222.123 321.909C188.69 323.048 243.544 327.338 248.583 338.009C254.199 344 248.52 334.749 246.773 331.831C241.172 324.077 231.297 321.409 222.123 321.909Z" fill="#FF7330"/>
<path d="M219.143 302.89C231.639 310.316 245.056 316.058 257.756 323.031C248.754 310.691 234.806 301.814 219.143 302.89Z" fill="#FF7330"/>
<path d="M270.285 290.145C277.743 304.622 286.089 319.568 300.474 328.18C291.565 314.623 284.997 298.569 270.285 290.145Z" fill="#FF7330"/>
<path d="M257.648 298.647C275.808 317.525 287.275 342.783 307.962 358.977C292.486 336.246 285.45 310.66 257.648 298.647Z" fill="#FF7330"/>
<path d="M271.951 333.875C274.494 340.411 278.192 346.605 282.778 352.112C281.437 351.036 280.064 349.959 278.582 348.945C286.928 366.668 298.255 383.892 314.028 395.796C306.882 383.393 301.344 371.957 292.872 361.957C298.411 366.325 304.62 369.789 311.219 372.004C297.756 359.648 286.679 344.936 271.951 333.875Z" fill="#FF7330"/>
<path d="M164.136 561.216C167.272 549.125 162.935 536.036 153.418 528.017C153.449 528.032 153.48 528.048 153.512 528.063C151.374 523.835 147.724 520.497 143.215 519.046C145.571 522.853 149.034 525.848 153.028 527.814C156.008 539.203 160.813 549.968 164.136 561.216Z" fill="#FF7330"/>
<path d="M166.334 541.091C169.751 550.732 171.966 560.904 177.91 569.423C177.582 558.97 175.648 547.347 166.334 541.091Z" fill="#FF7330"/>
<path d="M195.29 568.643C187.926 562.792 186.647 552.48 180.375 545.631C180.749 555.054 184.463 567.254 195.29 568.643Z" fill="#FF7330"/>
<path d="M207.454 563.494C201.978 553.946 197.22 543.727 188.904 536.207C191.073 547.331 197.345 557.94 207.454 563.494Z" fill="#FF7330"/>
<path d="M210.095 554.086C205.711 540.669 206.007 529.966 192.684 521.042C198.674 532.26 199.221 546.785 208.332 556.036C213.808 560.654 213.293 559.734 210.095 554.086Z" fill="#FF7330"/>
<path d="M221.907 545.678C212.359 534.227 215.807 517.502 207.928 505.083C207.164 519.483 206.462 538.72 221.907 545.678Z" fill="#FF7330"/>
<path d="M229.283 522.26C226.771 517.424 223.994 512.65 220.951 508.141C220.717 518.859 225.554 528.719 232.964 536.255C237.972 542.713 231.03 525.895 229.283 522.26Z" fill="#FF7330"/>
<path d="M229.156 522.01C229.203 522.088 229.25 522.166 229.281 522.26C229.312 522.322 229.359 522.4 229.39 522.462C229.312 522.306 229.234 522.15 229.156 522.01Z" fill="#FF7330"/>
<path d="M249.488 526.628C248.786 513.928 239.362 503.569 227.209 500.574C237.475 510.871 245.026 523.944 248.083 538.22C249.316 542.369 250.002 529.233 249.488 526.628Z" fill="#FF7330"/>
<path d="M260.392 523.321C261.063 508.234 255.275 493.226 243.246 483.787C245.727 490.948 248.301 498.109 251.624 504.911C251.515 504.677 251.39 504.443 251.265 504.209C254.385 510.528 257.35 516.987 260.392 523.321Z" fill="#FF7330"/>
<path d="M271.357 511.012C265.07 506.098 263.213 497.813 259.656 491.011C259.672 491.027 259.672 491.042 259.687 491.058C259.563 490.808 259.438 490.574 259.313 490.34C259.375 490.465 259.438 490.59 259.5 490.715C256.302 484.568 252.448 478.733 248.08 473.366C250.42 487.688 256.13 506.082 271.357 511.012Z" fill="#FF7330"/>
<path d="M251.031 460.963C254.838 475.94 267.069 486.096 275.12 498.749C273.669 482.695 262.436 471.166 251.031 460.963Z" fill="#FF7330"/>
<path d="M276.398 472.382C274.979 459.667 266.741 447.186 253.184 445.829C261.452 451.96 266.445 461.025 270.922 470.089C275.478 477.968 280.611 489.325 276.398 472.382Z" fill="#FF7330"/>
<path d="M271.158 470.558C271.08 470.402 271.002 470.246 270.924 470.09C270.908 470.059 270.893 470.012 270.877 469.981C270.971 470.184 271.064 470.371 271.158 470.558Z" fill="#FF7330"/>
<path d="M285.04 460.744C282.778 452.6 277.708 445.501 270.578 440.961C273.371 448.824 278.66 455.471 285.04 460.744Z" fill="#FF7330"/>
<path d="M274.511 419.682C271.438 440.666 283.872 453.584 304.606 454.036C288.427 446.703 280.393 436.188 274.511 419.682Z" fill="#FF7330"/>
<path d="M297.836 438.419C293.093 424.144 286.587 411.803 273.232 403.909C279.348 416.609 287.476 428.809 297.836 438.419Z" fill="#FF7330"/>
<path d="M291.41 414.564C291.379 414.533 291.347 414.486 291.301 414.455C291.254 414.392 291.207 414.346 291.16 414.283C291.238 414.377 291.332 414.471 291.41 414.564Z" fill="#FF7330"/>
<path d="M279.973 395.438C282.36 402.52 286.291 408.933 291.299 414.455C296.089 419.307 298.679 425.517 300.816 431.851C304.654 415.594 291.33 404.486 279.973 395.438Z" fill="#FF7330"/>
<path d="M275.807 375.904C289.536 390.741 298.428 409.291 308.538 426.624C306.291 406.171 296.868 382.894 275.807 375.904Z" fill="#FF7330"/>
<path d="M128.298 344.203C128.781 337.963 126.675 331.909 123.648 326.527C123.789 332.721 125.567 338.68 128.298 344.203Z" fill="#FF7330"/>
<path d="M130.82 342.331C131.974 334.297 131.35 326.059 129.385 318.212C128.012 326.247 127.887 334.624 130.82 342.331Z" fill="#FF7330"/>
<path d="M131.665 333.236C133.881 327.791 134.349 321.738 134.083 315.903C131.603 321.363 130.698 327.307 131.665 333.236Z" fill="#FF7330"/>
<path d="M132.883 332.97C135.8 328.523 136.986 323.157 136.643 317.915C134.474 322.657 133.039 327.743 132.883 332.97Z" fill="#FF7330"/>
<path d="M134.836 332.673C138.284 328.601 139.844 323.375 140.156 318.133C137.379 322.548 135.616 327.54 134.836 332.673Z" fill="#FF7330"/>
<path d="M143.744 319.069C142.98 320.286 142.543 321.721 142.606 323.141C143.37 321.924 143.807 320.489 143.744 319.069Z" fill="#FF7330"/>
<path d="M165.287 285.106C168.953 280.488 173.041 276.119 176.146 271.08C170.935 274.216 166.176 278.803 165.287 285.106Z" fill="#FF7330"/>
<path d="M169.452 288.366C170.31 286.65 171.293 284.949 172.463 283.389C172.448 283.405 172.432 283.436 172.417 283.451C172.479 283.373 172.526 283.311 172.573 283.249C172.557 283.28 172.526 283.311 172.51 283.327C174.46 280.534 176.863 278.053 179.468 275.885C173.665 277.133 169.015 282.266 169.452 288.366Z" fill="#FF7330"/>
<path d="M172.465 283.389C172.481 283.374 172.496 283.358 172.512 283.327C172.496 283.342 172.496 283.358 172.496 283.358C172.481 283.374 172.481 283.389 172.465 283.389Z" fill="#FF7330"/>
<path d="M170.746 292.452C174.693 288.162 179.654 284.73 182.931 279.8C177.751 282.67 172.072 286.259 170.746 292.452Z" fill="#FF7330"/>
<path d="M178.067 368.011C178.364 369.056 178.722 370.07 179.112 371.069C178.161 370.46 177.131 370.101 176.023 370.164C178.535 371.973 180.111 374.563 181.624 377.184C181.577 377.106 181.531 377.028 181.468 376.935C182.56 378.666 183.621 380.429 184.729 382.161C184.713 382.13 184.698 382.114 184.698 382.083C185.306 382.848 185.462 382.317 185.228 381.147C185.883 381.911 186.554 382.645 187.256 383.347C185.556 377.559 182.482 372.129 178.067 368.011Z" fill="#FF7330"/>
<path d="M181.09 366.216C181.558 370.647 184.444 374.235 187.923 376.794C186.254 372.94 183.648 369.524 181.09 366.216Z" fill="#FF7330"/>
<path d="M182.555 361.926C184.396 367.464 189.263 371.474 195.067 372.067C190.621 369.04 186.611 365.405 182.555 361.926Z" fill="#FF7330"/>
<path d="M196.867 365.577C196.867 365.577 196.867 365.593 196.882 365.593C192.639 363.097 188.348 360.507 183.605 359.165C186.539 362.707 193.684 366.513 196.867 365.577Z" fill="#FF7330"/>
<path d="M184.617 356.652C187.862 359.071 191.778 360.599 195.85 360.459C192.402 358.556 188.611 356.933 184.617 356.652Z" fill="#FF7330"/>
<path d="M185.459 353.33C189.141 355.654 193.806 356.996 197.815 354.703C193.65 354.703 189.609 353.298 185.459 353.33Z" fill="#FF7330"/>
<path d="M194.678 349.883C191.402 349.056 188.079 347.917 184.662 348.042C187.658 349.836 191.23 350.944 194.678 349.883Z" fill="#FF7330"/>
<path d="M192.73 340.163C189.984 340.693 187.191 341.317 184.68 342.566C187.098 343.892 197.613 339.508 192.73 340.163Z" fill="#FF7330"/>
<path d="M190.041 335.216C179.448 337.915 194.456 336.464 198.7 337.26C196.266 335.434 193.068 334.732 190.041 335.216Z" fill="#FF7330"/>
<path d="M195.413 331.145C193.12 330.567 190.686 330.053 188.299 330.318C177.987 331.862 191.263 332.658 195.413 331.145Z" fill="#FF7330"/>
<path d="M183.943 325.527C188.062 326.682 192.508 326.697 196.549 325.246C192.384 324.419 188.046 324.326 183.943 325.527Z" fill="#FF7330"/>
<path d="M191.903 314.062C188.502 315.045 185.694 317.385 183.447 320.006C186.427 319.397 198.955 311.706 191.903 314.062Z" fill="#FF7330"/>
<path d="M192.982 301.861C188.208 301.97 184.105 304.716 181.172 308.32C183.762 307.119 199.347 300.988 192.982 301.861Z" fill="#FF7330"/>
<path d="M171.98 402.864C173.634 406.608 175.428 410.368 177.831 413.707C177.441 409.463 175.584 405.266 171.98 402.864Z" fill="#FF7330"/>
<path d="M174.197 394.642C175.087 397.996 177.005 400.992 179.548 403.363C178.612 400.04 176.803 396.92 174.197 394.642Z" fill="#FF7330"/>
<path d="M174.385 391.708C175.726 395.344 177.895 398.667 180.61 401.428C179.674 397.59 177.567 394.064 174.385 391.708Z" fill="#FF7330"/>
<path d="M21.6023 383.002C18.3573 386.06 16.0327 389.898 14.4102 394.001C17.9828 391.287 20.4478 387.293 21.6023 383.002Z" fill="#FF7330"/>
<path d="M13.5781 385.733C15.8715 383.611 17.8373 380.943 18.8357 377.948C16.2927 379.914 14.405 382.628 13.5781 385.733Z" fill="#FF7330"/>
<path d="M11.3789 381.724C13.8439 381.038 16.0905 379.618 17.6194 377.59C15.2324 378.401 13.0482 379.836 11.3789 381.724Z" fill="#FF7330"/>
<path d="M10.3515 364.859C7.51207 365.436 4.84426 366.793 2.61328 368.603C5.53071 368.26 8.29213 366.934 10.3515 364.859Z" fill="#FF7330"/>
<path d="M6.3418 371.459C8.46357 370.725 10.4293 369.493 11.849 367.761C9.68046 368.385 7.73031 369.68 6.3418 371.459Z" fill="#FF7330"/>
<path d="M8.04297 374.469C9.96192 373.689 11.5532 372.192 12.5049 370.366C10.7108 371.333 9.18186 372.8 8.04297 374.469Z" fill="#FF7330"/>
<path d="M17.1069 371.646C15.2191 372.722 13.347 373.908 11.7713 375.421C5.54636 381.271 15.8432 375.374 17.1069 371.646Z" fill="#FF7330"/>
<path d="M11.752 375.436C11.752 375.436 11.752 375.42 11.7675 375.42C11.8142 375.374 11.8298 375.343 11.8765 375.296C11.8454 375.343 11.7987 375.389 11.752 375.436Z" fill="#FF7330"/>
<path d="M7.72959 359.085C3.39244 359.944 -0.648281 361.878 -4.39258 364.14C0.14738 364.062 4.45333 362.174 7.72959 359.085Z" fill="#FF7330"/>
<path d="M2.50494 360.211C8.12139 359.337 9.89993 357.59 2.89497 358.479C-3.28312 358.729 -4.39081 359.711 2.50494 360.211Z" fill="#FF7330"/>
<path d="M2.98729 354.141C1.73919 354.094 0.491095 354.157 -0.741404 354.36C-12.848 357.09 12.5353 354.89 2.98729 354.141Z" fill="#FF7330"/>
<path d="M4.90142 352.222C3.60652 351.941 2.17121 351.816 0.813898 351.956C-6.30027 352.705 2.0464 353.844 4.90142 352.222Z" fill="#FF7330"/>
<path d="M5.05869 349.04C2.71851 347.745 0.0975005 347.043 -2.57031 347.168C-0.29253 348.478 2.40648 349.274 5.05869 349.04Z" fill="#FF7330"/>
<path d="M-0.353516 342.299C1.36262 343.859 3.5624 344.92 5.87138 345.061C4.06164 343.657 1.90867 342.643 -0.353516 342.299Z" fill="#FF7330"/>
<path d="M48.8991 301.831C48.8367 308.508 49.8976 315.326 52.4094 321.519C52.9086 314.748 52.3626 307.821 48.8991 301.831Z" fill="#FF7330"/>
<path d="M55.5305 320.333C56.061 314.747 56.6694 308.928 55.7333 303.343C53.5648 308.85 53.2528 314.794 55.5305 320.333Z" fill="#FF7330"/>
<path d="M59.228 307.149C56.7006 313.328 55.7177 320.005 55.7801 326.635C58.7132 320.582 60.1641 313.842 59.228 307.149Z" fill="#FF7330"/>
<path d="M17.5098 395.39C21.1136 391.287 25.2948 387.527 28.4306 383.002C23.1262 385.374 18.8671 389.633 17.5098 395.39Z" fill="#FF7330"/>
<path d="M20.3672 398.761C24.1895 397.076 27.575 394.33 29.9932 390.898C26.0616 392.52 22.7854 395.298 20.3672 398.761Z" fill="#FF7330"/>
<path d="M37.8719 395.874C35.126 397.402 32.4114 399.056 30.0556 401.147C16.8882 412.458 35.4693 401.818 37.8719 395.874Z" fill="#FF7330"/>
<path d="M27.2324 407.466C31.1951 405.516 35.2047 403.332 38.3249 400.165C33.863 401.21 29.8534 403.66 27.2324 407.466Z" fill="#FF7330"/>
<path d="M27.8694 412.568C25.3108 413.426 23.5791 415.766 22.9082 418.293C24.3903 416 34.1255 410.54 27.8694 412.568Z" fill="#FF7330"/>
<path d="M28.3547 415.938C24.9536 416.842 22.2078 419.307 21.4277 422.802C23.6587 420.477 26.1705 418.309 28.3547 415.938Z" fill="#FF7330"/>
<path d="M9.35313 419.432C-12.707 439.074 8.77588 448.341 -6.29492 457.015C10.6792 452.569 -4.67239 441.741 9.35313 419.432Z" fill="#FF7330"/>
<path d="M4.67631 445.347C6.90728 440.916 7.93696 435.939 8.59222 431.056C5.31595 435.066 4.44229 440.308 4.67631 445.347Z" fill="#FF7330"/>
<path d="M0.149644 693.499C-3.59465 705.294 -7.08933 717.229 -9.1643 729.444C-9.10189 729.101 -9.05509 728.773 -8.99268 728.446C-11.2705 740.131 -11.0208 752.144 -8.39984 763.72C-5.54481 740.24 4.5492 717.525 0.149644 693.499Z" fill="#FF7330"/>
<path d="M10.163 770.304C7.55755 759.493 7.66676 747.043 -0.820312 738.743C1.02063 749.789 1.8007 761.911 10.163 770.304Z" fill="#FF7330"/>
<path d="M14.8114 730.365C7.55683 743.735 12.3776 759.726 21.8944 770.616C19.133 757.292 16.1999 743.907 14.8114 730.365Z" fill="#FF7330"/>
<path d="M61.2728 774.251C61.2884 774.267 61.304 774.298 61.304 774.329C57.4505 764.251 57.5597 753.065 52.9105 743.22C51.3036 752.675 50.6171 763.642 57.4661 771.287C58.3085 772.223 62.5209 776.872 61.2728 774.251Z" fill="#FF7330"/>
<path d="M77.4525 697.477C75.3775 711.237 73.6302 725.044 70.9312 738.711C68.669 749.413 64.3006 760.755 69.3398 771.333C71.1184 776.356 71.1496 775.998 70.7908 770.849C70.6348 742.845 88.7478 742.096 77.4525 697.477Z" fill="#FF7330"/>
<path d="M84.7359 765.11C90.836 754.969 93.0046 743.159 91.8189 731.442C85.906 741.614 84.4551 753.534 84.7359 765.11Z" fill="#FF7330"/>
<path d="M112.412 700.301C113.441 712.532 108.933 723.952 106.826 735.809C105.188 745.42 105.5 755.264 106.546 764.906C110.602 743.844 124.222 721.035 112.412 700.301Z" fill="#FF7330"/>
<path d="M136.332 704.343C128.937 725.997 110.809 748.167 129.202 769.884C119.779 747.371 140.42 726.902 136.332 704.343Z" fill="#FF7330"/>
<path d="M149.655 766.965C145.661 759.258 142.759 750.989 138.625 743.36C137.143 752.737 141.152 762.394 149.655 766.965Z" fill="#FF7330"/>
<path d="M147.922 731.208C140.808 747.885 145.613 765.452 163.414 772.067C152.306 761.146 150.122 745.888 147.922 731.208Z" fill="#FF7330"/>
<path d="M182.546 766.638C182.359 766.373 182.188 766.123 182 765.858C182.016 765.889 182.032 765.905 182.047 765.921C181.782 765.546 181.517 765.172 181.252 764.813C160.798 741.302 166.68 718.29 158.926 690.988C154.324 723.204 153.778 748.681 182.546 766.638Z" fill="#FF7330"/>
<path d="M181.182 764.72C181.197 764.751 181.229 764.782 181.244 764.813C181.244 764.813 181.244 764.813 181.26 764.813C181.229 764.782 181.213 764.751 181.182 764.72Z" fill="#FF7330"/>
<path d="M185.867 703.172C181.811 719.974 186.413 736.886 185.305 753.798C194.822 738.228 191.64 719.475 185.867 703.172Z" fill="#FF7330"/>
<path d="M209.312 693.499C210.717 708.991 213.494 724.436 211.793 740.053C221.357 725.482 219.937 707.088 209.312 693.499Z" fill="#FF7330"/>
<path d="M299.896 441.82C295.263 442.444 298.336 442.616 300.832 444.036C306.761 450.401 309.99 459.013 314.515 466.423C314.546 457.078 311.145 442.6 299.896 441.82Z" fill="#FF7330"/>
<path d="M314.185 484.395C315.933 472.179 309.645 454.706 294.699 456.906C305.604 461.727 309.442 474.364 314.185 484.395Z" fill="#FF7330"/>
<mask id="mask5_232_17504" style="mask-type:luminance" maskUnits="userSpaceOnUse" x="292" y="470" width="36" height="52">
<path d="M292.316 470.619H327.201V521.76H292.316V470.619Z" fill="white"/>
</mask>
<g mask="url(#mask5_232_17504)">
<path d="M304.61 491.276C310.57 498.062 318.23 503.257 327.201 505.754C315.328 494.926 305.998 481.416 293.439 471.259C294.516 474.707 295.936 478.03 297.636 481.182C296.997 480.48 296.341 479.793 295.655 479.122C299.337 495.613 304.969 515.083 323.066 520.544C314.095 512.774 310.258 501.416 304.61 491.276Z" fill="#FF7330"/>
</g>
<path d="M292.703 499.202C288.99 518.204 301.05 518.953 313.343 527.112C317.805 533.072 318.913 540.779 321.44 547.644C326.183 504.459 300.051 527.159 292.703 499.202Z" fill="#FF7330"/>
<path d="M298.521 534.32C298.427 534.149 298.334 533.946 298.24 533.759C298.209 533.712 298.178 533.649 298.146 533.603C298.271 533.837 298.396 534.086 298.521 534.32Z" fill="#FF7330"/>
<path d="M289.848 516.784C292.469 522.541 295.308 528.173 298.241 533.758C300.254 537.424 302.531 540.934 304.825 544.429C303.982 543.509 303.124 542.619 302.188 541.761C305.184 555.194 310.582 567.878 315.09 580.811C316.619 571.95 315.465 562.948 311.83 555.022C310.738 539.749 302.734 525.224 289.848 516.784Z" fill="#FF7330"/>
<path d="M298.335 570.467C298.288 570.233 298.241 569.984 298.179 569.75C302.298 588.627 306.463 607.505 309.942 626.523C313.593 601.358 310.956 574.945 295.184 554.117C296.135 559.593 297.181 565.038 298.335 570.467Z" fill="#FF7330"/>
<path d="M297.838 612.56C288.54 590.469 292.877 569.407 274.67 549.656C282.049 570.343 280.957 594.821 294.764 612.685C296.683 615.025 298.275 617.069 299.258 618.176C286.137 609.253 273.126 600.095 263.266 587.458C263.281 587.489 263.312 587.52 263.344 587.551C262.876 587.052 262.423 586.506 261.955 586.038C265.403 607.536 285.263 618.629 305.061 622.124C303.486 621.047 301.91 619.986 300.334 618.925C300.397 618.442 299.663 616.554 297.838 612.56Z" fill="#FF7330"/>
<path d="M258.594 601.201C261.745 620.25 279.624 634.51 299.001 631.608C282.183 626.959 269.749 613.916 258.594 601.201Z" fill="#FF7330"/>
<path d="M258.801 618.224C270.845 632.015 285.729 644.309 290.799 662.562C293.592 641.797 277.787 624.152 258.801 618.224Z" fill="#FF7330"/>
<path d="M263.314 638.583C273.408 650.72 286.482 664.044 285.733 680.862C294.813 663.529 280.601 643.388 263.314 638.583Z" fill="#FF7330"/>
<path d="M248.975 644.761C266.744 659.114 279.35 678.927 285.201 701.003V700.988C287.525 676.603 276.308 651.235 248.975 644.761Z" fill="#FF7330"/>
<path d="M259.52 677.929C267.055 688.74 272.952 700.831 277.742 713.094C279.754 699.224 273.342 683.03 259.52 677.929Z" fill="#FF7330"/>
<path d="M237.816 641.064C245.679 654.138 247.099 678.148 254.135 693.796C253.542 693.141 252.95 692.486 252.341 691.862C253.574 701.675 259.393 709.928 266.055 716.933C265.306 712.596 263.792 708.508 261.78 704.67C263.683 706.246 265.821 707.463 268.286 708.149C268.301 708.149 268.301 708.149 268.317 708.165C250.391 691.659 264.495 662.921 237.816 641.064Z" fill="#FF7330"/>
<path d="M238.302 679.724C231.531 699.256 244.09 723.329 264.887 726.715C249.13 716.777 242.374 697.041 238.302 679.724Z" fill="#FF7330"/>
<path d="M251.158 733.329C239.098 718.056 225.65 701.518 226.024 681.081C214.261 702.688 232.545 723.578 251.158 733.329Z" fill="#FF7330"/>
<path d="M53.4743 938.938C50.7753 939.531 50.4321 943.431 53.1779 944.585C53.8643 944.851 54.5352 945.085 55.2216 945.319C54.0048 947.518 52.507 949.484 53.4743 949.11H53.4587C54.7224 948.236 56.0017 947.16 57.0938 945.99C61.587 947.581 66.0177 949.344 69.6684 952.573C68.0771 947.815 64.2392 943.79 59.7772 941.2C60.0736 939.328 59.4028 937.393 57.0782 935.646C52.3822 930.357 47.0466 925.521 43.2555 919.514C28.5435 890.028 -10.5688 870.183 -5.21757 832.662C-24.5007 869.294 24.1752 897.641 38.9183 927.408C43.0371 932.136 48.3571 935.427 53.4743 938.938Z" fill="#FF7330"/>
<path d="M-1.66174 837.359C-1.52132 830.089 2.70661 824.082 5.85806 817.795C15.2188 800.711 17.6838 782.084 12.9566 763.175C10.7413 775.453 9.61796 788.012 5.0468 799.76C1.61453 811.773 -5.79607 824.753 -1.66174 837.359Z" fill="#FF7330"/>
<path d="M107.317 840.962C110.78 826.281 113.776 811.523 115.258 796.483C117.13 785.609 117.832 774.548 117.379 763.533C110.328 780.975 106.412 799.213 104.68 817.888C100.109 836.999 98.2523 856.61 93.7748 875.722C88.9228 901.058 75.7397 922.135 75.4121 945.6C75.3497 943.946 75.2717 942.292 75.1781 940.654C73.1187 922.635 59.53 908.609 55.3177 891.245C49.7169 870.698 54.4908 848.997 50.0757 828.2C42.6027 856.049 40.3717 886.643 55.2865 912.525C61.6674 925.178 69.4056 937.347 72.3387 951.372C73.1967 954.43 74.164 957.503 74.9285 960.561C75.3029 956.536 75.4433 952.495 75.4277 948.455C75.6773 956.224 77.3779 964.274 81.3406 972.855C80.6073 958.752 81.6214 944.617 84.5232 930.779C89.4064 914.662 95.7249 898.968 99.3288 882.461C103.198 868.857 104.789 854.832 107.317 840.962Z" fill="#FF7330"/>
<path d="M189.874 835.423C179.093 864.191 169.545 893.428 162.712 923.383C157.985 943.134 152.68 963.166 155.426 983.619C154.428 1006.33 156.191 1003.71 172.619 1017.91C175.271 1022.76 175.958 1028.47 176.738 1033.89C178.36 1027.69 179.671 1020.45 176.956 1014.38C172.868 1006.63 161.542 1001.98 164.116 991.872C164.413 981.762 162.01 971.7 163.196 961.559C165.395 943.29 170.45 925.473 174.694 907.594C190.638 844.877 218.502 785.764 235.975 723.453C223.292 741.316 215.897 761.769 209.188 782.441C203.821 800.476 196.364 817.778 189.874 835.423Z" fill="#FF7330"/>
<path d="M68.3235 898.015C69.5248 898.951 74.5796 902.742 72.255 900.136C72.2706 900.152 72.2862 900.168 72.3018 900.199C65.6557 893.334 65.5465 883.895 64.2828 874.972C62.7851 863.271 61.3186 851.429 62.0362 839.603C63.1595 816.404 72.6139 791.879 63.2999 769.367C61.459 802.956 50.1013 836.452 56.217 870.322C58.7132 879.839 59.9301 891.758 68.3235 898.015Z" fill="#FF7330"/>
<mask id="mask6_232_17504" style="mask-type:luminance" maskUnits="userSpaceOnUse" x="178" y="852" width="22" height="200">
<path d="M178.234 852.163H199.436V1051.81H178.234V852.163Z" fill="white"/>
</mask>
<g mask="url(#mask6_232_17504)">
<path d="M195.851 852.724C185.055 886.735 183.183 922.742 181.373 958.142C181.014 972.666 188.347 985.787 189.657 1000.05C189.813 1007.16 182.543 1011.51 181.155 1018.27C178.253 1029.16 179.657 1040.72 180.593 1051.81C183.791 1041.05 185.039 1029.55 189.61 1019.22C192.138 1014.88 195.711 1011.15 197.364 1006.33C200.828 991.918 191.124 978.267 189.969 964.055C187.77 926.799 199.689 889.933 195.851 852.724Z" fill="#FF7330"/>
</g>
<path d="M34.4402 595.71C34.175 592.762 34.0502 590.094 34.0346 587.676C36.6556 578.939 38.7617 570.031 42.7869 561.809C40.4311 564.243 38.5589 566.926 37.03 569.766C40.2907 561.434 45.127 556.567 45.4547 543.399C39.963 560.28 30.1966 568.798 31.9128 584.961C30.9455 589.813 30.3683 594.79 29.791 599.673C31.0391 596.834 32.0688 593.932 33.0205 590.983C33.3949 592.497 33.8629 594.072 34.4402 595.71Z" fill="#FF7330"/>
<path d="M26.1858 565.912C23.2996 576.833 21.365 588.144 22.4727 599.455C24.4541 614.338 24.2824 609.284 24.9221 598.051C24.9221 598.113 24.9065 598.16 24.9065 598.222C25.5149 587.473 26.7474 576.677 26.1858 565.912Z" fill="#FF7330"/>
<path d="M44.0479 582.372C37.6826 597.162 37.199 613.434 34.4688 629.098C41.1773 614.526 42.3318 598.129 44.0479 582.372Z" fill="#FF7330"/>
<path d="M51.5844 641.53C54.7358 628.753 61.304 610.577 49.291 600.639C57.0292 612.683 50.6951 628.082 51.5844 641.53Z" fill="#FF7330"/>
<path d="M74.9357 641.641C72.5956 631.578 73.672 621.094 71.9403 610.953C69.6157 621.188 68.8669 632.514 74.9357 641.641Z" fill="#FF7330"/>
<path d="M110.246 607.239C115.332 621.093 113.772 635.851 115.972 650.173C117.906 635.602 119.778 619.751 110.246 607.239Z" fill="#FF7330"/>
<path d="M131.242 579.11C139.261 606.303 112.88 629.986 134.893 647.444C117.17 626.273 145.751 601.732 131.242 579.11Z" fill="#FF7330"/>
<path d="M138.968 637.741C138.516 630.47 140.029 625.665 141.105 620.876C142.525 625.681 144.538 630.314 147.393 634.511C145.989 627.849 144.429 621.157 142.01 614.791C142.244 610.251 141.402 604.978 137.86 597.287C138.063 600.703 138.5 604.12 138.765 607.537C138.656 607.318 138.562 607.1 138.453 606.881C138.578 608.27 138.765 609.643 138.968 611.031C138.999 612.389 138.984 613.762 138.89 615.134C138.484 621.983 134.99 633.575 138.968 637.725V637.741Z" fill="#FF7330"/>
<path d="M146.453 580.25C148.778 593.557 156.906 606.366 152.304 620.126C150.463 626.367 148.419 632.997 151.617 639.191C151.196 635.821 151.024 632.217 152.241 628.972C160.713 612.716 155.627 594.93 146.453 580.25Z" fill="#FF7330"/>
<path d="M177.412 612.81C166.569 601.639 161.296 587.489 157.692 572.684C157.286 579.299 158.16 585.82 160.282 591.795C157.895 586.974 154.993 582.403 151.498 578.222C157.629 592.778 163.137 607.521 168.425 622.405C167.77 613.918 165.945 605.493 162.856 597.599C166.148 603.714 170.984 609.003 177.412 612.81Z" fill="#FF7330"/>
<path d="M158.393 561.639C170.25 573.152 178.362 587.209 181.56 603.512C182.653 586.179 173.853 569.736 158.393 561.639Z" fill="#FF7330"/>
<path d="M214.508 584.696C236.209 616.07 206.38 619.471 230.624 642.81C211.606 616.959 241.014 609.252 214.508 584.696Z" fill="#FF7330"/>
<path d="M207.02 614.4C214.976 627.661 214.929 644.542 225.008 656.586C218.596 642.654 219.079 625.306 207.02 614.4Z" fill="#FF7330"/>
<path d="M202.232 631.562C206.835 641.594 216.32 649.207 219.113 659.956C219.113 659.956 219.113 659.956 219.113 659.941C221.313 650.72 210.017 638.333 202.232 631.562Z" fill="#FF7330"/>
<path d="M209.187 692.5C198.173 666.025 211.964 651.017 200.045 629.612C200.139 630.189 200.263 630.766 200.373 631.328C200.373 631.328 200.373 631.328 200.373 631.312C200.622 632.685 200.872 634.058 201.137 635.431C201.121 635.369 201.106 635.306 201.09 635.228C204.554 654.496 196.067 675.526 209.187 692.5Z" fill="#FF7330"/>
<path d="M187.067 647.958C184.571 665.65 198.191 679.426 191.763 697.118C202.544 681.236 189.548 664.355 187.067 647.958Z" fill="#FF7330"/>
<path d="M178.202 660.893C177.594 672.157 179.56 683.249 182.602 694.061C183.397 682.859 181.713 671.533 178.202 660.893Z" fill="#FF7330"/>
<path d="M156.703 652.217C161.914 660.143 167.094 668.739 165.908 678.661C165.315 685.136 164.083 691.688 165.986 698.085C166.033 697.274 166.048 696.4 166.111 695.542C169.153 677.928 173.318 664.714 156.703 652.217Z" fill="#FF7330"/>
<path d="M147.675 656.556C143.244 671.548 141.731 688.32 150.608 702.002C145.943 687.165 147.94 671.782 147.675 656.556Z" fill="#FF7330"/>
<path d="M132.506 705.075C134.706 695.886 133.738 685.433 127.311 678.1C130.134 686.837 131.18 696.01 132.506 705.075Z" fill="#FF7330"/>
<path d="M107.67 717.963C107.67 717.947 107.67 717.932 107.686 717.916C107.67 717.916 107.67 717.916 107.67 717.932C107.67 717.947 107.67 717.963 107.67 717.963Z" fill="#FF7330"/>
<path d="M107.686 717.915C119.761 692.001 92.3029 691.861 108.294 674.559C112.787 668.943 114.394 661.797 114.878 654.777C112.023 663.202 107.514 670.737 102.147 677.804C93.551 690.785 112.304 693.374 107.686 717.915Z" fill="#FF7330"/>
<path d="M89.9327 703.312C90.0887 695.621 98.4821 684.871 87.5457 680.534C95.6427 686.525 87.1244 694.7 86.75 702.001C88.6221 713.219 97.4212 712.345 93.1621 726.87C99.4962 714.951 94.9719 713.312 89.9327 703.312Z" fill="#FF7330"/>
<path d="M59.5096 682.657C64.8608 690.786 62.427 699.975 60.6173 708.727C61.6626 716.575 59.2444 723.954 56.8418 731.333C63.4411 722.862 63.6595 716.887 64.2368 705.388C67.6691 695.903 65.1885 686.823 61.1165 678.086C62.1618 668.289 71.5538 660.8 74.05 651.081C68.1683 660.363 53.9712 670.582 59.5096 682.657Z" fill="#FF7330"/>
<path d="M46.2972 686.838C43.5981 693.671 42.8649 700.895 42.2252 708.134C41.1019 706.246 39.7602 704.467 38.0909 702.86C47.5765 725.186 21.46 749.961 40.5247 769.883C36.8584 760.273 37.4825 750.273 42.2408 741.146C46.3752 731.801 47.7637 720.209 43.6293 710.833C46.2191 703.188 46.4688 694.873 46.2972 686.838Z" fill="#FF7330"/>
<path d="M18.1195 674.013C16.7934 664.122 22.0042 653.841 17.9011 644.184C18.5875 653.747 14.032 662.874 14.8432 672.469C20.3973 690.785 21.8326 691.362 11.9414 708.976C23.7827 696.994 24.7188 689.193 18.1195 674.013Z" fill="#FF7330"/>
<path d="M-10.4135 665.183C3.25316 676.634 -28.1833 690.082 -9.36824 708.694C-22.3641 689.505 7.77752 674.044 -10.4135 665.183Z" fill="#FF7330"/>
</g>
</g>
</g>
<defs>
<clipPath id="clip0_232_17504">
<rect width="430" height="932" fill="white"/>
</clipPath>
</defs>
</svg>
