<svg xmlns="http://www.w3.org/2000/svg" xmlns:xlink="http://www.w3.org/1999/xlink" width="1080" zoomAndPan="magnify" viewBox="0 0 810 809.999993" height="1080" preserveAspectRatio="xMidYMid meet" version="1.0"><path fill="#f93e3e" d="M 405.078125 0.15625 C 181.457031 0.15625 0.15625 181.4375 0.15625 405.078125 C 0.15625 628.71875 181.457031 810 405.078125 810 C 628.703125 810 810 628.703125 810 405.078125 C 810 181.457031 628.703125 0.15625 405.078125 0.15625 Z M 405.078125 0.15625 " fill-opacity="1" fill-rule="nonzero"/><path fill="#fc4c4c" d="M 190.851562 634.144531 C 433.851562 634.144531 630.839844 437.15625 630.839844 194.171875 C 630.859375 170.480469 628.972656 146.941406 625.183594 123.550781 C 621.394531 100.164062 615.75 77.234375 608.25 54.757812 C 600.582031 50.300781 592.773438 46.101562 584.824219 42.15625 C 576.878906 38.214844 568.808594 34.535156 560.617188 31.125 C 552.429688 27.714844 544.136719 24.578125 535.738281 21.71875 C 527.339844 18.855469 518.859375 16.273438 510.289062 13.96875 C 501.722656 11.667969 493.089844 9.648438 484.386719 7.917969 C 475.6875 6.183594 466.9375 4.742188 458.140625 3.585938 C 449.34375 2.433594 440.519531 1.566406 431.667969 0.996094 C 422.8125 0.425781 413.949219 0.144531 405.078125 0.15625 C 181.457031 0.15625 0.15625 181.457031 0.15625 405.078125 C 0.144531 414.214844 0.441406 423.34375 1.046875 432.460938 C 1.65625 441.578125 2.570312 450.664062 3.796875 459.71875 C 5.019531 468.773438 6.550781 477.773438 8.390625 486.726562 C 10.226562 495.675781 12.367188 504.554688 14.808594 513.359375 C 17.25 522.164062 19.984375 530.875 23.019531 539.496094 C 26.050781 548.113281 29.375 556.617188 32.988281 565.011719 C 36.597656 573.40625 40.492188 581.664062 44.667969 589.792969 C 48.839844 597.921875 53.285156 605.898438 58 613.722656 C 79.488281 620.507812 101.371094 625.613281 123.640625 629.039062 C 145.914062 632.460938 168.316406 634.164062 190.851562 634.144531 Z M 190.851562 634.144531 " fill-opacity="1" fill-rule="nonzero"/><path fill="#ffffff" d="M 641.453125 405.078125 C 641.453125 406.546875 641.378906 408.015625 641.234375 409.476562 C 641.089844 410.9375 640.875 412.390625 640.589844 413.832031 C 640.304688 415.269531 639.945312 416.695312 639.519531 418.101562 C 639.09375 419.507812 638.597656 420.886719 638.035156 422.246094 C 637.476562 423.601562 636.847656 424.929688 636.15625 426.226562 C 635.460938 427.519531 634.707031 428.777344 633.890625 430 C 633.074219 431.222656 632.203125 432.402344 631.269531 433.535156 C 630.335938 434.671875 629.351562 435.757812 628.3125 436.796875 C 627.273438 437.835938 626.1875 438.824219 625.050781 439.753906 C 623.914062 440.6875 622.738281 441.5625 621.515625 442.375 C 620.292969 443.191406 619.035156 443.949219 617.738281 444.640625 C 616.445312 445.332031 615.117188 445.960938 613.761719 446.523438 C 612.402344 447.085938 611.019531 447.578125 609.617188 448.003906 C 608.210938 448.433594 606.785156 448.789062 605.34375 449.074219 C 603.90625 449.363281 602.453125 449.578125 600.992188 449.722656 C 599.527344 449.863281 598.0625 449.9375 596.59375 449.9375 L 449.9375 449.9375 L 449.9375 596.59375 C 449.9375 598.0625 449.863281 599.527344 449.722656 600.992188 C 449.578125 602.453125 449.363281 603.90625 449.074219 605.34375 C 448.789062 606.785156 448.433594 608.210938 448.003906 609.617188 C 447.578125 611.019531 447.085938 612.402344 446.523438 613.761719 C 445.960938 615.117188 445.332031 616.445312 444.640625 617.738281 C 443.949219 619.035156 443.191406 620.292969 442.375 621.515625 C 441.5625 622.738281 440.6875 623.914062 439.753906 625.050781 C 438.824219 626.1875 437.835938 627.273438 436.796875 628.3125 C 435.757812 629.351562 434.671875 630.335938 433.535156 631.269531 C 432.402344 632.203125 431.222656 633.074219 430 633.890625 C 428.777344 634.707031 427.519531 635.460938 426.226562 636.15625 C 424.929688 636.847656 423.601562 637.476562 422.246094 638.039062 C 420.886719 638.597656 419.507812 639.09375 418.101562 639.519531 C 416.695312 639.945312 415.269531 640.304688 413.832031 640.589844 C 412.390625 640.875 410.9375 641.089844 409.476562 641.234375 C 408.015625 641.378906 406.546875 641.453125 405.078125 641.453125 C 403.609375 641.453125 402.144531 641.378906 400.683594 641.234375 C 399.21875 641.089844 397.769531 640.875 396.328125 640.589844 C 394.886719 640.304688 393.464844 639.945312 392.058594 639.519531 C 390.652344 639.09375 389.269531 638.597656 387.914062 638.035156 C 386.554688 637.476562 385.230469 636.847656 383.933594 636.15625 C 382.636719 635.460938 381.378906 634.707031 380.15625 633.890625 C 378.9375 633.074219 377.757812 632.203125 376.621094 631.269531 C 375.484375 630.335938 374.398438 629.351562 373.359375 628.3125 C 372.320312 627.273438 371.335938 626.1875 370.402344 625.050781 C 369.472656 623.914062 368.597656 622.738281 367.78125 621.515625 C 366.964844 620.292969 366.210938 619.035156 365.519531 617.738281 C 364.824219 616.445312 364.199219 615.117188 363.636719 613.761719 C 363.074219 612.402344 362.578125 611.019531 362.152344 609.617188 C 361.726562 608.210938 361.371094 606.785156 361.082031 605.34375 C 360.796875 603.90625 360.582031 602.453125 360.4375 600.992188 C 360.292969 599.527344 360.222656 598.0625 360.222656 596.59375 L 360.222656 449.9375 L 213.5625 449.9375 C 212.09375 449.9375 210.628906 449.863281 209.167969 449.722656 C 207.707031 449.578125 206.253906 449.363281 204.8125 449.074219 C 203.371094 448.789062 201.949219 448.433594 200.542969 448.003906 C 199.136719 447.578125 197.753906 447.085938 196.398438 446.523438 C 195.039062 445.960938 193.714844 445.332031 192.417969 444.640625 C 191.121094 443.949219 189.863281 443.191406 188.640625 442.375 C 187.421875 441.5625 186.242188 440.6875 185.105469 439.753906 C 183.972656 438.824219 182.882812 437.835938 181.84375 436.796875 C 180.804688 435.757812 179.820312 434.671875 178.890625 433.535156 C 177.957031 432.402344 177.082031 431.222656 176.265625 430 C 175.449219 428.777344 174.695312 427.519531 174.003906 426.226562 C 173.3125 424.929688 172.683594 423.601562 172.121094 422.246094 C 171.558594 420.886719 171.066406 419.507812 170.636719 418.101562 C 170.210938 416.695312 169.855469 415.269531 169.570312 413.832031 C 169.28125 412.390625 169.066406 410.9375 168.921875 409.476562 C 168.777344 408.015625 168.707031 406.546875 168.707031 405.078125 C 168.707031 403.609375 168.777344 402.144531 168.921875 400.683594 C 169.066406 399.21875 169.28125 397.769531 169.570312 396.328125 C 169.855469 394.886719 170.210938 393.464844 170.636719 392.058594 C 171.066406 390.652344 171.558594 389.269531 172.121094 387.914062 C 172.683594 386.554688 173.3125 385.230469 174.003906 383.933594 C 174.695312 382.636719 175.449219 381.378906 176.265625 380.15625 C 177.082031 378.9375 177.957031 377.757812 178.890625 376.621094 C 179.820312 375.484375 180.804688 374.398438 181.84375 373.359375 C 182.882812 372.320312 183.972656 371.335938 185.105469 370.402344 C 186.242188 369.472656 187.421875 368.597656 188.644531 367.78125 C 189.863281 366.964844 191.121094 366.210938 192.417969 365.519531 C 193.714844 364.824219 195.039062 364.199219 196.398438 363.636719 C 197.753906 363.074219 199.136719 362.578125 200.542969 362.152344 C 201.949219 361.726562 203.371094 361.371094 204.8125 361.082031 C 206.253906 360.796875 207.707031 360.582031 209.167969 360.4375 C 210.628906 360.292969 212.09375 360.222656 213.5625 360.222656 L 360.222656 360.222656 L 360.222656 213.5625 C 360.222656 212.09375 360.292969 210.628906 360.4375 209.167969 C 360.582031 207.707031 360.796875 206.253906 361.082031 204.8125 C 361.371094 203.371094 361.726562 201.949219 362.152344 200.542969 C 362.578125 199.136719 363.074219 197.753906 363.636719 196.398438 C 364.199219 195.039062 364.824219 193.714844 365.519531 192.417969 C 366.210938 191.121094 366.964844 189.863281 367.78125 188.644531 C 368.597656 187.421875 369.472656 186.242188 370.402344 185.105469 C 371.335938 183.972656 372.320312 182.882812 373.359375 181.84375 C 374.398438 180.804688 375.484375 179.820312 376.621094 178.890625 C 377.757812 177.957031 378.9375 177.082031 380.15625 176.265625 C 381.378906 175.449219 382.636719 174.695312 383.933594 174.003906 C 385.230469 173.3125 386.554688 172.683594 387.914062 172.121094 C 389.269531 171.558594 390.652344 171.066406 392.058594 170.636719 C 393.464844 170.210938 394.886719 169.855469 396.328125 169.570312 C 397.769531 169.28125 399.21875 169.066406 400.683594 168.921875 C 402.144531 168.777344 403.609375 168.707031 405.078125 168.707031 C 406.546875 168.707031 408.015625 168.777344 409.476562 168.921875 C 410.9375 169.066406 412.390625 169.28125 413.832031 169.570312 C 415.269531 169.855469 416.695312 170.210938 418.101562 170.636719 C 419.507812 171.066406 420.886719 171.558594 422.246094 172.121094 C 423.601562 172.683594 424.929688 173.3125 426.226562 174.003906 C 427.519531 174.695312 428.777344 175.449219 430 176.265625 C 431.222656 177.082031 432.402344 177.957031 433.535156 178.890625 C 434.671875 179.820312 435.757812 180.804688 436.796875 181.84375 C 437.835938 182.882812 438.824219 183.972656 439.753906 185.105469 C 440.6875 186.242188 441.5625 187.421875 442.375 188.644531 C 443.191406 189.863281 443.949219 191.121094 444.640625 192.417969 C 445.332031 193.714844 445.960938 195.039062 446.523438 196.398438 C 447.085938 197.753906 447.578125 199.136719 448.003906 200.542969 C 448.433594 201.949219 448.789062 203.371094 449.074219 204.8125 C 449.363281 206.253906 449.578125 207.707031 449.722656 209.167969 C 449.863281 210.628906 449.9375 212.09375 449.9375 213.5625 L 449.9375 360.222656 L 596.59375 360.222656 C 598.0625 360.222656 599.527344 360.292969 600.992188 360.4375 C 602.453125 360.582031 603.90625 360.796875 605.34375 361.082031 C 606.785156 361.371094 608.210938 361.726562 609.617188 362.152344 C 611.019531 362.578125 612.402344 363.074219 613.761719 363.636719 C 615.117188 364.199219 616.445312 364.824219 617.738281 365.519531 C 619.035156 366.210938 620.292969 366.964844 621.515625 367.78125 C 622.738281 368.597656 623.914062 369.472656 625.050781 370.402344 C 626.1875 371.335938 627.273438 372.320312 628.3125 373.359375 C 629.351562 374.398438 630.335938 375.484375 631.269531 376.621094 C 632.203125 377.757812 633.074219 378.9375 633.890625 380.15625 C 634.707031 381.378906 635.460938 382.636719 636.15625 383.933594 C 636.847656 385.230469 637.476562 386.554688 638.039062 387.914062 C 638.597656 389.269531 639.09375 390.652344 639.519531 392.058594 C 639.945312 393.464844 640.304688 394.886719 640.589844 396.328125 C 640.875 397.769531 641.089844 399.21875 641.234375 400.683594 C 641.378906 402.144531 641.453125 403.609375 641.453125 405.078125 Z M 641.453125 405.078125 " fill-opacity="1" fill-rule="nonzero"/></svg>